<?xml version="1.0" encoding="UTF-8" standalone="yes" ?>
<!DOCTYPE svg PUBLIC "-//W3C//DTD SVG 1.0//EN" "http://www.w3.org/TR/2001/REC-SVG-20010904/DTD/svg10.dtd">
<svg height="750" width="600" xmlns="http://www.w3.org/2000/svg" xmlns:svg="http://www.w3.org/2000/svg" xmlns:xlink="http://www.w3.org/1999/xlink">
<style>
g.nazioni {
    fill:none; /* Nessun riempimento */
    stroke-linecap:square;
    stroke-linejoin:bevel;
    stroke-miterlimit:3;
    stroke-opacity:1;
    stroke-width:2; /* Contorno bianco spesso */
    stroke:#000000;
    fill-opacity:1;
}
</style>
<g id="global">
<g class="nazioni" id="nazioni">
<g id="it" >
<polygon points="84.2,43.6 84.8,44.3 84.9,44.8 84.6,45.4 84.6,46.0 84.8,46.5 84.9,47.1 85.0,47.6 84.9,48.1 84.9,48.8 85.0,49.9 84.7,50.6 84.8,51.3 84.8,51.9 84.4,52.7 83.7,53.8 83.2,54.1 83.4,54.7 83.8,55.4 84.4,56.3 83.8,57.1 84.3,57.5 84.9,57.9 84.9,58.4 85.7,58.6 86.2,58.8 86.9,59.2 87.5,59.2 87.9,59.9 88.1,60.6 88.8,61.1 89.2,61.6 89.5,62.2 89.6,62.7 90.3,63.4 90.9,63.5 90.6,64.3 91.3,65.0 91.4,65.7 92.2,65.7 93.0,65.6 93.4,66.2 93.9,66.5 94.4,66.5 94.9,67.0 96.0,67.2 96.4,66.5 96.9,66.0 97.6,66.2 97.9,66.9 98.4,67.1 99.0,67.4 99.8,67.5 100.3,67.2 100.9,67.8 101.5,68.3 102.0,68.7 102.3,69.6 101.8,70.4 101.2,70.5 101.1,71.4 100.7,72.0 100.1,72.2 99.7,72.8 99.4,73.6 99.2,74.3 99.7,74.1 100.3,74.2 100.8,74.4 101.5,74.6 102.0,75.2 102.9,76.2 103.6,76.4 104.1,76.3 104.3,76.9 104.1,77.5 104.0,78.0 104.5,78.7 105.5,79.7 105.3,80.4 105.8,81.0 105.9,81.9 106.2,82.4 105.2,83.5 104.9,84.6 105.4,84.3 106.1,83.9 106.6,83.7 107.2,84.1 107.8,84.2 108.3,84.1 108.6,84.8 109.2,85.3 109.8,85.2 110.3,85.1 110.4,84.6 110.5,84.1 110.6,83.6 111.1,82.6 111.3,81.8 111.8,81.6 112.4,81.0 112.6,80.5 112.8,80.0 112.3,79.9 112.3,79.3 111.8,79.1 111.1,78.8 110.4,78.4 109.7,78.2 109.8,77.6 109.5,77.1 109.5,76.2 108.9,75.9 108.4,75.6 109.1,74.9 109.7,74.4 110.0,73.6 109.9,73.0 109.7,72.4 109.3,71.8 109.3,71.2 109.6,70.4 110.6,69.8 111.2,69.6 111.8,69.6 112.3,69.5 112.4,68.7 112.9,68.1 112.4,66.5 112.1,65.9 113.3,65.4 113.9,64.9 114.5,64.4 114.9,63.7 115.6,63.2 116.0,62.6 116.6,62.5 117.5,62.0 117.7,61.5 117.9,60.2 118.4,59.9 118.7,59.3 118.8,58.7 119.4,58.4 119.9,58.5 120.1,58.0 120.1,57.1 120.2,56.4 120.7,55.4 121.1,54.8 121.6,54.3 121.6,53.8 121.6,53.3 122.1,52.7 122.0,52.1 122.0,51.6 122.2,50.8 121.7,50.4 121.3,49.6 121.4,49.0 121.4,48.4 121.3,47.9 121.5,47.3 121.2,46.5 120.6,46.2 120.0,45.7 119.9,44.7 120.5,44.4 121.0,44.1 121.2,43.6 121.1,42.3 121.3,41.7 122.3,41.2 123.2,40.8 123.8,40.8 124.5,40.8 125.2,40.7 125.6,41.2 125.4,41.8 125.9,42.2 126.2,42.8 126.8,43.1 127.3,43.3 127.8,42.7 127.9,42.0 128.3,41.3 129.0,41.2 129.4,41.8 129.0,42.4 129.5,42.4 129.6,43.1 129.3,44.0 129.4,44.5 129.4,45.0 129.2,46.3 129.5,46.8 129.8,47.7 129.9,48.4 129.6,49.1 130.5,49.7 131.0,49.9 131.7,50.9 131.8,51.6 132.1,52.1 132.4,52.8 132.8,53.3 133.4,53.8 133.9,53.7 134.4,54.1 135.0,54.4 135.7,54.4 136.2,54.4 137.3,54.9 138.0,54.7 139.1,53.9 139.8,54.4 140.4,54.6 140.9,54.5 141.1,53.6 141.4,52.8 141.3,52.2 141.4,51.7 141.5,51.1 142.2,50.7 142.8,51.1 143.2,51.6 143.7,51.7 144.4,51.2 145.4,50.7 146.1,50.3 146.9,49.8 147.8,49.9 148.3,49.5 149.0,49.0 149.5,48.7 150.0,49.4 150.5,49.6 150.9,49.0 151.6,48.8 151.8,49.3 152.1,49.8 152.8,50.3 153.4,50.5 153.5,51.0 153.2,51.6 152.9,52.3 153.5,53.0 153.7,53.6 153.4,54.1 153.5,54.7 154.1,55.1 155.0,55.3 155.6,55.7 156.3,56.3 156.5,57.0 156.3,57.8 155.9,58.5 156.5,58.7 157.0,59.2 157.4,58.7 158.1,58.5 158.7,58.6 159.2,58.7 159.8,58.6 160.4,58.3 160.6,57.7 161.1,57.2 161.7,56.7 161.6,56.1 161.1,55.4 160.8,54.4 160.3,54.0 160.0,53.5 159.1,53.0 158.4,51.6 158.5,50.5 159.1,50.1 159.4,49.5 159.4,48.8 160.0,48.2 160.6,48.3 161.0,47.6 161.0,47.0 160.9,46.3 160.3,46.1 160.1,45.5 159.5,45.4 158.4,45.6 157.3,46.0 156.6,45.7 156.2,45.1 155.7,44.7 155.5,44.0 156.0,43.5 155.9,42.7 155.5,42.1 155.7,40.2 156.0,39.7 155.9,38.9 155.5,38.4 156.1,38.0 156.6,37.4 157.2,36.8 157.1,36.2 157.6,35.9 158.1,35.3 157.9,34.1 158.5,33.9 159.2,34.0 159.9,33.7 160.4,33.4 161.1,33.2 161.7,32.8 162.5,32.9 163.0,33.2 163.4,32.6 164.0,32.1 164.4,32.8 164.9,33.4 164.5,34.5 164.4,35.4 164.5,35.9 165.1,36.0 166.2,36.1 166.8,36.9 166.8,37.5 167.7,37.6 168.2,37.4 168.7,37.9 169.2,37.5 169.8,37.1 171.2,37.7 171.9,37.5 172.4,37.4 172.9,37.9 173.4,38.4 174.1,38.1 174.6,37.9 174.9,36.9 174.7,36.4 175.0,35.8 175.3,34.8 175.1,33.8 175.4,33.3 174.9,32.8 174.1,32.0 173.4,31.5 172.5,31.7 171.8,31.9 170.9,29.6 170.7,29.0 170.9,28.4 171.2,27.8 171.7,27.3 172.0,26.8 171.3,25.6 172.3,24.7 172.9,24.3 173.1,23.7 173.0,23.1 172.7,22.4 172.4,21.6 172.9,21.3 173.4,20.9 173.7,20.2 173.7,19.2 174.0,18.6 174.2,17.6 174.7,17.4 175.3,18.0 176.1,18.1 176.8,18.1 177.8,17.9 177.8,18.5 178.3,18.4 179.6,17.7 181.0,16.9 181.8,16.8 182.4,16.5 183.0,16.1 183.5,16.4 184.3,16.9 184.1,17.5 184.9,17.9 185.4,18.5 186.1,18.7 186.7,18.8 187.3,19.4 186.5,20.6 186.0,21.0 185.9,21.7 186.7,21.7 188.0,21.5 188.7,21.4 189.5,22.4 190.1,22.5 190.6,22.0 191.2,22.4 192.0,22.8 192.7,23.2 193.7,22.8 194.2,22.4 194.7,22.5 195.4,22.3 196.7,22.5 197.6,22.8 198.1,22.6 198.8,22.8 199.1,21.9 199.4,21.2 199.7,20.6 200.5,19.8 201.4,19.2 201.2,18.4 201.0,17.4 201.0,16.8 201.4,16.3 201.6,15.4 202.2,14.8 202.1,14.0 201.9,13.4 202.4,13.0 202.5,12.4 203.3,12.1 203.9,12.1 204.6,11.7 205.0,11.1 204.8,10.1 205.4,9.9 205.9,9.4 206.5,9.5 207.1,9.6 208.2,9.4 209.2,8.7 210.1,8.5 211.3,8.3 212.2,8.0 212.8,7.9 213.4,7.9 214.2,8.5 215.3,9.4 215.9,9.3 217.0,8.8 217.2,8.2 217.5,7.7 218.3,7.3 218.6,6.4 219.2,6.4 220.2,6.7 220.8,7.2 221.2,7.8 221.9,7.7 222.8,7.4 223.2,6.9 224.5,6.2 225.3,6.1 225.7,6.7 227.1,7.3 227.8,7.2 228.3,7.2 229.0,7.2 229.5,7.9 229.8,8.5 230.7,8.7 231.5,8.1 232.2,7.1 232.8,7.2 233.4,7.2 234.6,7.0 235.1,6.5 235.6,6.0 236.4,5.5 237.1,5.1 237.9,4.6 238.7,4.0 240.3,3.7 240.6,3.2 241.6,3.1 242.1,3.2 242.6,3.2 243.2,2.5 243.9,2.2 244.7,2.3 245.3,1.6 245.9,1.1 247.0,1.2 247.7,0.8 248.2,0.8 248.7,0.7 249.4,0.3 250.1,0.1 250.7,0.3 251.6,0.5 252.3,1.3 251.7,1.9 251.2,2.4 251.3,2.9 251.1,3.5 250.8,4.1 249.9,4.3 249.3,4.6 248.3,4.4 247.4,5.2 247.3,5.8 247.6,6.4 247.9,7.1 247.9,8.0 247.8,8.5 248.3,9.0 249.0,9.2 249.3,9.7 249.4,10.2 249.0,11.0 248.4,11.6 249.1,11.9 249.6,11.9 250.5,12.0 250.9,12.6 251.0,13.2 251.4,13.7 251.9,13.8 252.4,13.6 252.6,13.1 253.1,13.0 253.9,13.1 254.5,13.6 254.6,14.2 255.1,14.5 255.0,15.0 255.4,15.9 255.8,16.5 255.4,17.1 254.8,17.8 255.3,18.5 255.1,19.1 255.0,19.8 255.8,19.8 256.8,19.8 257.3,20.0 258.0,20.1 258.4,20.7 258.7,21.4 258.8,21.9 258.9,22.4 259.3,23.6 259.9,24.1 261.0,24.9 261.8,25.3 262.3,25.7 263.7,25.7 264.0,26.3 264.5,26.3 265.1,26.1 265.6,26.2 266.1,26.4 266.9,27.2 267.6,27.6 268.3,27.7 268.9,27.5 269.6,27.5 270.4,27.1 270.9,27.3 271.4,27.6 272.0,27.3 272.8,27.2 273.4,27.2 273.9,27.5 274.4,27.6 275.0,28.2 276.0,28.2 276.4,27.7 277.3,27.7 278.2,27.9 278.6,28.4 279.3,28.8 279.8,28.6 280.0,29.1 280.0,29.8 280.6,30.2 281.2,30.1 281.8,29.9 282.5,30.0 283.2,29.9 283.8,29.8 284.5,29.8 285.0,30.1 286.0,30.0 286.9,30.3 287.4,30.1 288.0,30.1 288.7,30.2 289.5,30.4 290.2,30.2 291.2,29.9 291.7,30.1 292.3,30.3 292.9,30.4 294.3,30.6 294.9,30.5 295.5,31.2 296.2,31.5 296.8,31.6 297.7,32.0 298.0,32.5 298.8,32.2 299.6,32.1 300.5,32.1 301.1,32.2 301.6,32.5 302.5,32.0 302.9,31.3 303.5,31.4 304.1,31.4 304.1,30.7 304.8,30.8 305.8,31.1 305.8,31.6 306.6,31.9 307.3,31.9 308.8,31.8 309.3,31.5 309.9,31.2 310.5,32.1 311.9,31.9 312.7,32.0 313.1,32.6 313.7,32.7 314.3,32.3 315.4,32.4 316.3,32.8 317.1,33.2 318.0,33.5 318.6,33.6 319.3,33.6 319.8,34.1 319.7,34.6 319.3,35.5 319.6,36.1 319.2,36.8 319.1,37.4 319.0,38.6 317.3,38.8 316.5,38.8 315.7,39.0 314.9,39.2 314.0,40.0 313.9,40.8 313.7,41.5 313.2,41.9 312.3,42.7 311.5,42.9 310.6,43.8 309.9,44.0 309.3,44.5 308.5,44.5 307.9,44.7 308.0,45.2 308.4,46.2 308.1,47.1 307.5,47.2 307.0,47.7 306.7,48.3 306.0,48.8 305.3,48.9 305.5,49.4 306.1,50.0 306.2,50.9 306.5,51.6 306.9,52.3 307.6,52.8 307.4,53.9 307.8,54.7 308.8,54.2 308.7,53.6 309.2,53.3 309.8,53.4 310.3,53.3 311.0,53.5 311.6,53.9 312.1,53.7 313.1,54.0 313.7,54.3 314.2,55.1 314.3,55.7 314.8,55.6 315.4,55.3 316.2,55.5 316.8,55.4 317.5,55.3 318.2,55.5 318.7,55.8 318.7,56.3 318.5,56.8 318.3,57.9 318.1,58.4 317.6,58.8 317.2,59.4 316.5,60.0 316.1,60.6 315.4,61.1 315.0,61.7 314.0,62.4 313.3,63.0 312.5,63.8 311.9,63.8 311.7,64.5 312.3,64.8 312.2,65.6 312.1,66.1 311.8,66.8 311.1,67.1 311.0,67.7 311.7,68.5 312.1,69.1 312.8,69.3 313.3,69.8 314.0,70.0 314.9,69.6 315.5,69.2 315.9,68.4 316.4,68.4 317.3,68.6 317.9,68.3 318.5,68.6 318.4,69.1 318.3,69.9 318.2,70.7 318.3,71.3 318.3,72.0 317.8,72.6 317.5,73.6 317.3,74.1 316.6,74.7 316.6,75.6 316.3,76.4 316.2,76.9 315.8,77.5 316.4,78.2 317.0,79.3 317.0,79.8 318.3,80.6 319.1,80.6 319.6,80.4 320.2,80.4 320.7,80.9 321.3,81.0 321.8,81.5 322.3,81.9 322.9,82.2 323.5,82.6 324.0,83.1 324.7,83.0 325.4,83.4 325.9,83.5 326.5,83.8 326.8,84.5 327.1,85.0 327.6,85.3 328.2,85.9 328.3,86.5 328.2,87.1 328.8,87.6 329.2,88.2 329.7,88.7 330.2,89.1 331.0,89.7 331.5,89.9 332.2,90.4 332.0,90.9 330.7,92.0 330.2,92.6 329.6,93.3 329.5,93.8 328.7,94.0 328.2,94.1 327.7,94.2 326.7,94.1 326.0,93.9 325.3,93.6 324.7,93.2 324.1,93.4 323.5,93.3 324.0,92.6 324.7,92.5 325.5,92.7 326.0,92.8 327.0,92.5 327.5,92.5 327.7,92.0 326.9,92.3 326.4,92.1 325.9,92.2 325.7,91.4 325.9,90.9 325.4,91.0 324.4,90.6 324.7,90.1 325.4,89.7 325.3,89.2 324.7,88.0 324.2,87.4 323.7,87.0 323.2,86.7 322.7,86.5 322.4,85.9 321.8,85.3 321.0,84.4 320.4,84.0 319.6,83.4 318.9,82.7 318.0,82.4 317.5,82.4 316.9,82.2 316.4,81.9 315.3,81.7 314.9,81.1 314.6,80.6 314.9,81.3 314.2,81.4 314.3,82.2 313.8,83.1 314.1,84.1 314.6,84.8 315.4,85.3 314.9,85.7 314.4,85.7 313.8,86.1 313.3,86.5 312.5,87.0 312.0,87.1 311.5,86.7 311.3,87.8 310.6,88.3 310.1,88.6 309.1,89.0 308.2,89.1 307.5,88.5 306.8,88.1 306.1,88.4 305.6,88.2 304.7,87.7 304.2,87.4 303.3,87.2 302.8,87.3 302.2,87.0 301.6,86.9 301.0,87.0 299.8,87.2 298.8,87.3 298.3,87.8 297.7,87.9 297.2,88.2 297.2,88.8 296.6,89.5 295.9,90.2 295.4,90.9 295.2,91.6 295.1,92.3 294.2,92.7 293.6,92.8 292.9,92.9 292.3,92.9 291.5,93.0 290.6,93.2 290.0,93.4 288.8,93.6 287.8,94.0 287.1,94.3 286.5,94.2 285.8,95.0 284.2,96.3 283.7,96.6 282.8,97.2 281.7,97.9 281.2,98.3 280.7,98.7 280.1,99.2 279.0,100.0 278.3,100.3 277.8,100.6 277.0,100.9 276.3,101.2 275.1,101.8 274.3,102.3 273.7,102.6 272.8,103.2 272.2,103.7 271.5,103.9 270.9,104.2 270.3,104.6 269.4,105.0 267.9,105.7 267.0,106.1 266.3,106.6 265.8,107.1 265.6,107.7 264.8,107.6 264.3,107.3 263.7,107.4 263.1,108.1 262.4,109.1 262.1,109.8 261.7,110.6 261.5,111.2 261.2,111.8 261.0,112.3 260.9,112.9 261.3,113.5 260.7,113.8 260.5,114.5 260.3,115.3 260.0,116.6 259.9,117.2 259.8,118.5 259.8,119.1 259.7,119.6 259.8,120.1 260.3,120.1 259.9,120.7 259.9,121.4 260.0,122.0 260.2,122.5 260.6,123.3 261.3,124.3 261.6,124.9 261.5,125.4 261.4,126.2 261.4,126.7 261.4,127.2 261.6,127.9 261.8,128.9 262.2,129.5 262.9,130.2 262.9,130.7 263.5,130.9 264.1,131.4 264.7,132.0 265.3,132.3 266.0,133.1 266.5,133.6 267.1,134.1 267.8,134.6 269.0,135.4 269.6,135.5 270.2,135.6 271.9,136.4 272.2,137.0 271.6,137.7 271.2,138.2 270.7,138.9 270.3,139.4 270.1,140.3 269.9,141.2 269.7,141.8 269.4,142.8 268.6,144.9 268.1,145.4 267.5,145.8 266.9,146.0 266.3,146.7 266.5,147.6 266.1,148.1 265.4,148.4 265.2,149.0 264.5,149.0 263.7,148.7 263.2,148.4 262.5,148.4 261.9,148.4 261.4,148.1 261.9,148.0 262.3,147.4 262.7,146.6 261.7,145.7 260.3,145.5 259.4,146.8 259.1,147.3 259.7,146.9 260.3,147.1 260.0,147.7 259.7,148.3 259.5,148.9 259.1,149.6 258.7,150.7 258.7,151.4 258.7,152.0 258.6,152.9 258.5,154.2 258.5,154.8 258.5,155.4 258.8,156.2 259.1,156.7 259.1,157.3 259.3,158.0 259.5,158.5 259.9,159.0 260.1,159.5 260.4,160.1 260.7,161.6 260.8,162.2 260.8,163.7 260.8,164.7 260.8,165.6 260.8,166.3 260.9,166.9 261.0,167.5 261.4,168.2 261.3,169.5 261.4,170.1 261.6,170.6 262.3,172.7 262.7,173.4 262.9,174.2 262.9,174.7 263.3,176.4 263.5,177.2 263.6,177.7 263.9,178.3 264.3,179.4 264.5,180.4 264.6,180.9 264.8,181.4 264.9,181.9 265.1,182.5 265.3,183.1 265.6,183.8 266.0,184.6 266.4,185.3 266.8,185.9 267.2,186.4 267.9,187.1 268.4,187.9 269.0,188.5 269.7,189.2 271.3,191.0 271.7,191.5 272.2,192.1 272.7,192.6 273.2,193.1 273.9,193.7 274.5,194.2 275.1,194.6 275.7,194.6 276.3,195.1 277.1,196.1 277.6,196.7 278.2,197.4 278.8,197.9 279.7,198.8 280.3,199.3 280.9,199.8 281.5,200.2 282.4,200.8 282.9,200.9 283.6,201.2 284.2,201.2 284.7,201.2 285.2,201.3 285.9,201.3 286.5,201.3 287.0,201.5 287.6,201.9 288.1,202.2 289.0,202.7 289.7,203.0 290.7,203.6 291.6,203.9 292.4,204.4 292.9,204.9 293.5,205.4 294.0,205.9 294.7,206.6 295.6,207.3 296.3,207.8 296.8,208.2 297.3,208.3 297.9,208.7 298.9,209.4 299.6,210.0 300.1,210.5 300.6,211.0 301.2,211.6 301.9,212.2 302.5,212.7 303.2,213.3 304.5,214.2 305.2,214.7 305.8,215.3 306.9,216.1 308.2,217.2 308.8,217.7 309.4,218.1 310.2,218.6 310.8,219.0 311.3,219.3 311.9,219.6 312.5,220.0 313.3,220.3 314.3,220.8 315.0,221.0 315.6,221.5 316.3,221.9 316.8,222.1 317.6,222.5 318.4,222.7 319.1,222.8 319.7,222.9 320.3,222.4 320.4,221.8 320.9,222.1 320.4,221.6 321.0,221.4 321.7,221.8 322.2,222.2 323.1,223.0 323.7,223.8 323.9,224.6 324.3,225.1 324.8,225.4 325.7,225.6 326.7,226.2 326.8,226.8 326.6,227.4 326.7,228.4 326.8,228.9 326.8,229.4 327.1,230.0 327.5,230.5 327.7,231.0 328.1,231.8 328.4,232.5 328.9,233.4 329.3,234.1 329.7,235.2 329.9,235.9 330.3,237.0 330.6,237.6 330.9,238.4 331.1,239.0 331.4,239.6 331.6,240.1 332.0,240.8 332.7,241.4 333.1,242.3 333.6,243.4 333.9,243.9 334.1,244.4 334.4,245.1 334.9,245.9 335.2,246.6 335.6,247.8 335.8,248.3 336.1,249.0 336.3,249.7 336.7,250.6 337.0,251.1 337.3,251.8 337.5,252.4 337.9,253.1 338.2,253.7 338.4,254.2 338.7,255.0 338.9,255.5 338.9,256.0 339.1,256.9 339.3,257.7 339.6,258.8 339.8,259.4 340.0,260.3 340.4,261.5 340.5,262.0 340.8,263.1 341.0,263.6 341.4,264.7 342.0,265.8 342.5,267.0 342.8,267.7 343.1,268.3 343.3,268.9 343.4,269.4 343.5,269.9 343.7,270.7 343.9,271.4 344.3,273.0 344.5,273.6 344.9,274.4 345.2,275.1 345.4,275.6 345.7,276.2 346.1,276.9 346.4,277.4 346.7,278.2 347.2,279.2 347.7,280.2 348.2,281.0 348.7,281.8 349.1,282.3 349.7,283.0 350.1,284.0 350.6,284.8 351.0,285.5 351.4,286.0 351.7,286.6 352.2,287.2 352.7,287.7 353.1,288.3 354.1,289.5 355.1,290.6 355.9,291.4 356.9,292.5 357.3,293.0 358.4,294.0 359.0,294.4 359.5,294.7 359.9,295.2 360.8,296.0 362.6,297.3 363.3,297.8 364.0,298.3 364.6,298.6 365.3,299.1 366.2,299.6 366.7,299.9 367.3,300.1 367.8,300.4 368.3,300.9 368.7,301.6 368.9,302.1 369.4,302.9 370.3,304.0 371.4,304.9 372.1,305.3 372.9,306.0 373.4,306.5 373.4,307.1 373.8,307.7 374.5,308.1 375.0,308.4 375.6,308.7 376.2,309.2 377.9,310.1 378.8,310.5 379.4,310.8 380.0,311.0 380.6,311.2 381.1,311.3 383.3,312.1 383.9,312.2 384.4,313.2 384.4,314.7 384.7,315.2 384.6,316.1 384.6,316.6 385.0,317.1 385.5,317.5 386.3,318.0 386.9,318.4 387.7,318.7 388.3,318.8 388.8,319.2 389.3,319.5 390.1,319.9 390.6,320.2 391.7,320.7 392.3,320.9 393.2,321.2 393.7,321.4 394.5,321.6 395.0,321.7 396.2,321.9 397.1,322.0 398.3,322.2 398.7,322.8 399.4,323.3 400.0,323.6 401.7,324.8 402.6,325.8 403.2,326.1 403.7,326.3 404.3,326.4 404.9,326.6 405.6,326.7 406.4,326.8 406.9,326.9 407.7,326.9 408.6,327.0 410.0,326.9 410.6,326.9 411.1,326.8 411.9,326.7 412.9,326.6 413.4,326.6 414.5,326.7 415.2,326.7 415.8,327.0 416.4,327.4 417.0,327.5 417.5,327.5 418.0,327.5 418.5,327.5 419.4,327.4 419.9,327.3 420.7,327.2 421.5,327.0 422.6,326.8 423.1,326.6 424.4,326.3 425.5,326.0 426.8,325.6 427.5,325.4 428.2,325.2 429.1,324.9 429.7,324.9 430.3,325.1 430.8,325.2 431.5,325.5 432.1,325.5 432.7,325.5 433.8,325.4 434.4,325.3 435.3,325.1 436.6,324.9 438.0,324.6 438.6,324.5 440.6,324.0 442.3,323.7 443.5,323.4 444.0,323.3 445.4,322.8 446.0,322.7 446.6,322.5 447.8,321.9 448.3,322.0 448.9,322.2 449.4,322.0 450.0,322.1 450.9,322.3 451.6,322.4 452.1,322.8 453.1,323.7 453.7,323.9 454.3,323.9 454.8,324.1 455.0,324.7 455.4,325.2 456.0,325.5 456.1,326.5 456.2,327.1 456.4,327.9 456.7,328.4 457.5,329.2 457.3,329.8 457.6,330.7 457.5,331.4 457.4,332.1 457.2,332.8 456.4,333.2 456.2,333.8 455.7,334.3 455.1,335.0 454.5,335.2 453.5,335.8 453.1,336.4 452.7,336.9 452.1,337.2 451.8,337.7 451.7,338.2 450.7,339.1 450.2,339.5 449.7,339.8 449.0,340.3 448.0,340.9 447.2,341.5 446.7,341.7 446.2,342.1 445.5,342.7 444.7,343.4 444.3,343.9 444.1,344.4 444.0,344.9 444.0,345.7 444.0,346.2 444.1,346.9 444.2,347.6 444.4,348.3 444.6,349.0 445.6,351.1 445.9,351.7 446.3,352.4 446.8,353.0 447.6,353.7 448.1,354.2 448.9,354.7 449.7,355.2 450.9,355.7 451.6,356.0 452.1,356.1 453.4,356.7 454.2,357.0 455.1,357.4 455.7,357.6 456.3,357.9 457.6,358.5 458.5,358.9 459.5,359.3 460.1,359.4 460.6,359.5 461.2,359.9 461.8,360.4 462.4,360.8 463.0,361.1 463.5,361.3 464.0,361.4 464.8,361.5 465.5,361.7 466.4,361.9 467.0,362.0 467.8,362.2 468.4,362.5 468.9,362.8 469.6,363.2 470.3,363.4 471.3,363.7 472.4,364.5 473.0,364.9 473.6,365.0 474.4,364.9 475.0,365.3 475.6,365.4 476.1,365.7 476.9,365.9 477.4,366.4 478.2,366.6 479.0,367.0 479.6,367.6 480.1,367.8 481.3,368.1 481.8,368.3 482.4,368.3 483.0,368.4 483.7,368.4 484.3,368.6 485.3,369.1 486.5,369.4 487.1,369.5 487.8,369.5 488.3,369.7 489.4,369.9 489.9,370.3 490.7,370.9 492.1,371.2 492.7,371.0 493.3,371.6 493.8,371.5 494.1,370.8 493.4,370.6 494.0,370.6 494.2,371.2 494.3,371.7 495.2,372.1 496.7,372.4 497.6,372.7 498.9,373.2 499.8,373.2 500.4,373.4 501.2,373.7 501.7,373.7 502.3,373.8 503.1,373.9 503.6,374.0 504.1,374.3 505.1,374.7 505.6,375.1 506.5,375.5 508.1,376.3 508.6,376.4 509.3,376.5 510.0,376.9 510.9,377.6 511.1,378.1 511.7,378.3 512.3,378.5 512.9,378.6 513.5,379.1 514.0,379.3 514.8,379.7 515.9,380.3 516.6,380.9 517.0,381.4 517.5,381.8 518.1,382.4 518.6,383.1 518.9,383.7 519.5,384.0 520.6,384.3 521.2,384.6 522.3,385.5 523.4,386.4 523.9,386.5 524.7,386.9 525.3,387.3 525.4,387.8 526.7,388.5 527.2,388.7 527.8,388.9 528.5,389.2 529.3,389.4 530.4,389.8 531.1,389.9 531.6,390.1 532.3,390.3 533.3,390.4 533.8,390.5 534.6,390.7 535.2,390.9 535.7,391.1 536.3,391.2 536.8,391.4 537.6,391.6 538.4,392.0 539.3,392.6 540.8,393.6 542.3,394.1 542.9,394.6 544.0,395.1 544.5,395.3 545.7,395.5 546.3,395.6 546.9,395.6 548.0,395.6 548.9,395.6 549.4,395.2 549.9,395.8 550.3,396.5 551.1,396.5 551.6,396.4 551.1,397.0 550.4,397.5 549.7,397.9 550.2,398.0 550.9,397.5 551.6,397.5 552.4,397.4 553.6,397.9 553.6,398.5 554.0,399.2 554.6,399.8 555.2,400.2 555.2,401.1 555.0,401.8 555.1,402.5 555.9,403.2 556.5,403.7 557.0,404.0 557.5,404.7 558.5,405.4 559.0,405.7 559.5,406.1 560.0,406.6 560.6,407.0 561.6,407.2 562.3,407.3 562.8,407.8 563.4,408.0 564.0,408.0 564.5,408.3 565.1,408.8 565.7,409.0 566.2,409.4 566.6,410.0 567.1,410.5 567.7,410.9 568.2,411.5 569.1,412.0 569.6,412.3 569.7,412.9 570.2,413.4 571.1,414.0 571.8,414.4 572.6,415.0 573.5,416.0 573.8,416.5 574.9,417.5 575.4,417.8 575.9,418.0 576.4,418.4 576.7,419.0 576.7,419.5 577.4,420.0 577.6,420.8 578.2,421.4 578.6,422.1 578.7,422.6 578.5,423.2 578.5,423.7 578.8,424.4 579.4,424.8 579.7,425.3 579.8,425.9 580.4,426.7 580.4,427.2 581.1,427.2 581.9,427.8 581.4,428.4 581.7,429.0 582.3,429.6 581.5,430.6 581.0,431.3 580.7,431.9 580.6,432.4 580.5,433.2 580.5,433.9 579.9,434.6 578.9,435.3 578.7,435.9 578.6,437.0 578.0,437.3 577.8,438.0 577.6,438.6 577.4,439.8 577.4,440.6 577.4,441.2 577.3,442.0 577.3,442.9 577.2,443.4 577.6,444.0 577.8,445.1 577.8,445.7 577.6,446.3 577.6,446.9 577.5,447.4 577.4,448.0 577.6,448.6 577.8,449.1 577.3,450.0 576.9,450.7 576.1,450.7 575.1,450.8 574.8,450.3 574.2,450.0 573.4,449.5 572.8,449.3 572.0,448.9 571.4,448.6 570.9,448.7 570.3,448.8 569.4,448.8 568.6,448.8 567.7,448.4 566.9,448.1 566.3,447.7 565.6,447.6 564.9,447.0 563.9,446.2 562.8,445.6 562.0,445.3 561.2,444.5 560.6,444.0 560.1,443.8 559.6,443.2 558.9,442.5 558.8,442.0 557.9,441.1 557.0,439.9 556.7,439.4 557.4,439.6 557.8,439.0 558.0,438.2 557.9,437.7 557.7,437.2 557.3,436.6 556.6,436.0 555.8,435.9 556.7,435.0 557.0,433.7 557.0,433.2 557.0,432.6 556.5,431.9 556.0,431.1 555.6,430.5 555.1,430.2 554.5,429.9 553.9,429.3 553.4,428.8 552.9,428.6 552.4,428.1 551.8,427.3 551.7,426.7 551.8,426.0 551.7,425.1 551.1,424.6 550.4,423.9 550.9,424.2 550.9,423.6 550.5,423.1 549.9,423.1 549.6,422.6 548.5,421.7 547.9,421.5 547.4,421.6 546.7,421.8 546.1,421.5 544.7,421.4 543.8,421.3 543.2,421.2 542.4,421.5 541.8,421.2 541.0,421.2 540.3,421.2 539.1,421.2 538.2,421.3 537.1,421.5 535.7,421.8 535.1,421.9 534.4,422.0 533.6,422.1 532.8,422.3 532.0,422.4 531.3,422.6 530.7,422.6 530.4,422.1 529.8,421.7 529.0,421.6 528.5,421.5 527.9,421.3 527.3,420.7 526.7,420.6 525.9,420.6 525.4,420.7 524.7,420.5 524.1,420.3 523.8,419.8 523.3,419.8 522.5,419.5 522.0,419.2 521.3,419.2 520.5,418.9 519.8,418.3 519.1,418.2 518.2,417.6 517.6,417.3 517.1,417.3 516.5,417.0 515.8,416.6 514.9,416.7 515.1,415.8 515.7,415.6 516.2,415.5 517.2,414.4 516.9,413.4 516.4,412.8 515.6,412.2 514.5,412.1 513.5,412.2 513.3,411.4 512.5,410.9 512.0,411.2 512.4,410.7 511.9,411.0 511.5,410.5 511.0,410.2 510.4,410.0 509.7,409.9 509.2,409.9 508.6,410.0 507.9,410.1 507.2,410.4 506.4,410.7 505.9,411.0 505.3,411.2 504.5,411.8 504.0,412.1 503.3,412.6 502.8,413.1 502.2,413.6 501.4,414.5 500.8,415.0 500.2,415.9 499.0,417.5 498.4,418.5 497.8,420.1 497.6,420.6 496.7,422.2 496.4,422.7 495.8,423.8 495.5,424.4 494.8,425.4 494.4,426.5 494.2,427.2 494.0,427.8 493.6,428.5 493.4,429.1 492.9,431.3 492.7,432.2 492.2,433.1 491.7,434.0 491.3,434.7 491.1,435.4 490.8,435.9 490.3,436.5 489.7,437.0 489.0,437.9 488.4,438.6 487.8,439.3 487.3,440.2 487.1,440.7 487.0,441.5 487.2,442.2 487.0,442.7 487.0,443.2 487.4,444.1 487.7,445.0 487.8,445.5 488.0,446.7 488.3,447.3 488.8,447.8 488.9,448.5 488.1,449.9 487.6,450.7 486.9,451.8 486.2,452.4 485.8,453.0 485.0,454.4 484.6,455.1 484.1,456.3 483.7,456.8 483.5,457.3 483.2,457.8 483.0,458.6 482.9,459.3 482.8,460.4 482.9,461.0 482.9,461.6 483.1,462.1 483.5,462.8 484.0,463.4 485.1,463.9 485.2,464.7 485.2,465.4 485.2,466.3 485.3,466.8 485.2,467.3 485.3,468.3 485.9,468.1 487.4,469.2 487.9,469.4 488.6,469.7 489.2,470.0 489.8,470.2 490.3,470.3 490.9,470.3 491.4,470.3 492.6,470.2 493.2,470.1 493.8,470.0 494.4,470.1 495.1,470.1 495.6,470.2 496.1,470.2 496.7,469.8 497.7,469.7 498.4,470.0 498.8,470.5 499.3,470.8 500.0,471.2 500.6,471.9 500.8,472.4 501.4,473.3 502.0,473.7 502.5,474.1 503.0,474.3 503.5,474.8 504.2,475.1 505.0,475.3 505.6,475.8 506.3,476.0 507.3,476.7 508.0,476.9 508.7,477.1 509.3,477.2 510.0,477.2 510.5,477.3 511.4,477.5 511.8,478.1 512.0,478.6 512.2,479.1 512.8,479.9 513.7,480.6 514.3,480.9 514.9,481.4 516.2,481.9 516.7,482.1 517.4,482.2 518.1,482.2 518.6,482.2 518.2,483.2 517.8,483.8 517.6,484.4 517.6,485.0 517.4,485.7 517.1,487.0 516.9,487.6 516.8,488.1 516.9,489.5 516.9,490.0 516.8,491.1 516.8,491.7 517.0,492.3 517.4,492.8 517.8,493.3 518.2,493.9 518.8,494.3 519.2,494.8 519.3,495.4 519.1,496.0 518.8,496.6 518.6,497.2 518.3,498.2 518.1,499.0 518.0,499.5 517.9,500.2 517.8,501.0 517.8,501.5 518.0,502.0 518.5,502.7 519.3,502.9 519.0,502.3 519.5,503.1 519.2,503.6 519.3,504.2 519.8,504.9 520.3,505.4 521.5,506.0 522.8,506.3 523.3,506.2 523.2,506.7 522.7,506.6 522.1,507.1 521.7,507.7 521.3,508.7 521.2,509.4 521.3,510.2 521.9,511.0 521.3,511.5 520.8,511.9 520.5,512.5 520.0,513.1 519.4,513.8 518.7,514.6 518.5,515.1 518.2,514.5 517.7,514.2 516.6,514.0 515.9,514.0 515.2,514.2 515.0,514.7 514.0,514.6 513.4,513.9 512.8,513.2 512.2,513.0 511.4,513.1 510.9,513.2 509.3,513.7 508.2,514.0 507.2,514.3 506.7,514.6 506.1,514.8 505.4,515.0 504.9,515.3 504.4,515.5 503.7,515.8 503.2,516.2 502.3,516.7 501.1,517.5 500.0,518.2 499.0,519.1 498.4,519.5 497.9,520.0 497.3,520.5 496.0,521.4 495.5,521.8 494.9,521.9 494.4,522.5 494.0,523.0 493.8,523.6 493.3,524.4 492.6,525.5 492.3,526.0 492.5,526.8 492.0,527.3 491.5,528.4 491.2,529.0 491.0,529.5 491.1,530.2 491.7,530.8 492.2,531.1 492.4,531.6 492.4,532.3 492.4,533.2 492.6,534.1 492.8,535.4 493.0,536.0 493.3,536.7 493.4,537.3 493.5,537.9 493.6,538.5 493.8,539.0 493.8,539.5 493.8,540.1 493.8,540.7 494.1,542.3 494.3,542.8 494.5,543.3 494.5,543.9 494.7,545.1 494.8,546.0 494.7,546.6 494.6,547.2 494.4,547.9 493.7,549.0 493.3,549.6 492.8,550.2 492.1,551.1 491.6,551.8 491.1,552.5 490.5,553.0 489.9,553.7 489.4,554.1 488.8,554.5 488.1,554.9 487.3,555.1 486.6,555.5 485.5,556.0 485.0,556.3 484.3,556.6 483.8,556.8 483.1,557.1 482.5,557.6 482.1,558.1 481.9,558.6 481.6,559.2 481.1,559.7 480.7,560.2 480.5,560.7 480.2,561.3 479.4,562.4 478.9,563.2 478.5,563.7 477.8,564.8 477.4,565.3 477.1,565.9 476.8,566.4 476.5,566.9 475.8,567.7 475.3,568.2 475.0,568.8 475.0,569.9 475.0,570.8 474.9,571.5 474.8,572.2 474.7,573.1 474.7,573.7 474.5,574.5 474.5,575.1 474.4,575.7 474.0,576.9 473.8,577.4 473.4,578.7 473.0,579.6 472.6,580.4 471.9,581.3 471.5,581.8 471.1,582.4 470.2,582.7 469.7,582.7 468.8,582.8 468.0,583.2 467.2,583.3 466.5,583.3 465.8,583.3 465.3,583.2 464.3,582.8 463.7,582.8 462.8,583.0 461.8,583.1 460.2,583.5 459.6,583.8 459.0,583.9 458.5,583.8 457.8,583.9 457.2,584.0 456.4,584.2 455.7,584.3 455.2,584.0 454.6,583.7 454.1,583.8 453.6,583.4 453.0,583.2 452.3,582.7 451.4,582.3 450.3,581.1 449.7,580.4 449.3,579.9 448.8,579.0 448.5,578.1 449.0,577.8 449.5,577.2 449.6,576.7 449.3,576.2 449.2,575.5 449.2,574.9 448.4,574.5 448.1,573.9 448.0,573.3 448.0,572.7 448.6,572.1 449.0,571.3 449.1,570.6 449.0,569.5 448.8,569.0 448.2,568.3 448.1,567.7 447.7,566.8 447.6,566.2 447.6,565.6 447.5,564.9 447.7,564.3 448.5,564.0 449.2,563.7 449.8,563.1 450.3,562.9 450.9,562.6 451.5,562.5 452.3,562.6 453.3,562.2 453.9,561.8 454.7,561.2 455.5,560.5 456.2,559.7 456.6,559.1 456.6,558.6 456.9,558.1 457.1,557.5 457.0,556.8 457.1,555.4 457.3,554.9 458.2,553.9 458.4,553.4 458.4,552.9 458.8,551.6 459.0,551.1 459.3,550.4 459.9,549.1 460.3,547.9 460.5,547.3 460.7,546.0 460.7,545.5 460.9,544.7 461.1,544.1 461.2,543.5 461.2,542.9 460.3,542.3 459.7,541.8 459.4,541.3 457.8,540.1 457.3,539.5 456.7,539.1 455.8,538.5 455.9,536.7 456.4,535.8 457.0,535.3 457.5,534.8 458.2,534.7 459.0,534.2 459.5,534.1 460.0,533.7 460.6,533.5 461.3,533.4 461.8,532.8 462.2,532.1 462.8,531.3 463.4,531.1 463.9,531.1 464.6,530.9 465.3,530.6 465.9,530.6 466.7,530.9 467.5,531.0 468.3,531.2 468.9,531.4 469.9,530.9 470.4,531.0 470.9,530.7 471.4,530.2 471.7,529.7 472.4,529.2 472.9,528.8 473.2,528.2 473.4,527.5 473.6,526.9 473.8,526.0 474.0,525.2 474.2,524.6 474.3,523.9 474.4,523.0 474.4,522.2 474.3,521.4 474.3,520.9 474.2,520.3 474.1,519.0 474.1,518.4 474.0,517.9 473.8,517.3 473.5,516.8 473.0,516.7 472.4,516.6 471.3,515.9 470.8,515.8 470.3,515.2 470.1,514.6 469.7,514.0 469.4,513.4 469.1,512.7 468.3,512.1 467.4,511.1 467.2,510.5 467.0,509.9 466.3,507.4 466.2,506.8 465.9,506.1 465.7,505.6 465.4,504.8 465.1,504.2 465.0,503.4 464.8,502.6 464.8,502.0 464.7,501.4 464.6,500.2 464.3,498.7 464.2,497.7 464.0,496.1 463.8,495.4 463.7,494.8 463.5,493.6 463.2,493.1 463.0,492.3 462.7,491.0 462.5,490.4 462.1,489.8 461.9,489.1 461.7,488.6 461.5,488.0 461.2,487.3 460.8,486.4 460.4,485.6 460.1,484.9 459.9,484.3 459.5,483.7 459.0,483.2 458.1,482.5 457.6,481.7 457.3,481.2 456.9,480.4 456.2,479.6 455.7,479.2 454.8,478.7 454.3,478.6 453.8,478.4 453.4,477.9 453.1,477.2 453.0,476.6 452.5,475.2 452.2,474.5 451.9,473.6 451.5,473.1 451.1,471.7 450.8,470.9 450.5,470.4 449.9,469.9 449.7,469.4 449.3,467.9 449.2,467.3 449.2,466.5 448.9,465.7 448.5,464.6 448.3,464.0 448.2,463.4 448.0,462.9 447.8,461.7 447.6,461.1 447.1,460.7 447.1,460.1 446.8,459.5 447.4,459.0 447.7,458.5 447.6,458.0 447.2,457.0 447.1,456.5 446.7,455.8 446.3,455.2 445.6,454.2 445.3,453.7 444.4,453.1 444.2,451.7 443.6,451.1 442.6,450.1 442.2,449.6 441.6,449.3 441.1,448.6 441.1,447.9 440.5,447.1 439.6,447.1 438.7,446.3 438.5,445.7 438.7,445.2 438.1,445.2 437.4,445.1 436.1,444.9 434.9,445.1 434.0,445.3 433.2,445.5 432.3,446.1 431.9,446.7 431.7,447.2 431.5,447.7 431.0,447.7 430.4,448.1 429.9,448.8 429.0,450.1 428.8,450.7 428.1,451.0 426.7,450.6 425.6,450.7 424.6,450.5 424.1,449.9 423.7,449.4 423.2,448.9 422.5,449.0 422.0,449.4 421.1,449.6 420.7,449.0 421.2,449.1 421.6,448.3 421.4,447.6 421.1,447.0 420.8,446.4 420.3,445.7 419.7,445.4 419.0,445.1 418.1,444.1 417.5,443.5 416.9,443.2 415.9,443.1 415.4,442.5 414.7,441.7 414.1,441.1 413.5,440.5 412.8,440.1 412.0,440.3 411.5,440.4 411.0,440.5 410.3,441.0 409.8,440.9 409.2,440.8 408.6,440.7 408.0,440.3 407.8,439.8 407.5,439.2 406.9,438.5 406.3,437.9 405.4,437.8 404.9,437.5 404.4,437.1 403.6,437.0 402.8,437.2 402.0,436.5 401.8,436.0 402.6,435.2 403.1,434.8 403.5,434.3 403.6,433.0 403.6,432.5 403.4,431.9 403.3,430.7 403.8,430.2 404.3,430.1 404.7,429.6 405.1,429.1 405.7,429.1 405.9,428.5 406.0,427.6 405.9,427.0 405.7,426.4 405.2,425.4 404.8,424.4 404.3,423.5 403.9,423.0 403.4,422.3 402.8,421.3 402.5,420.8 402.1,420.1 401.7,419.2 401.3,418.5 400.7,417.2 400.4,416.6 400.0,415.9 399.5,415.1 398.8,414.3 398.2,413.5 397.7,412.8 397.2,412.3 396.6,411.7 395.9,411.0 395.2,410.4 394.7,409.9 394.0,409.5 393.5,409.2 392.6,408.9 392.1,408.9 391.9,409.5 391.3,409.5 390.8,409.7 390.3,410.4 390.0,411.1 389.5,411.9 389.0,412.0 388.3,411.8 387.0,411.2 386.2,411.2 385.7,411.8 385.0,412.3 384.3,412.9 383.9,413.6 383.1,413.6 382.1,413.8 381.5,414.1 380.9,413.6 380.3,413.3 379.4,413.0 378.7,413.5 378.1,413.6 377.6,413.7 377.1,414.1 376.3,414.3 375.7,415.0 375.1,415.4 374.5,415.6 373.8,416.0 373.2,416.3 372.4,416.7 371.9,417.1 371.4,416.1 372.0,414.7 372.3,414.1 372.1,413.5 372.6,413.0 373.4,413.4 374.1,413.2 375.0,412.6 375.5,411.7 375.7,411.1 376.5,410.7 376.7,410.2 376.9,409.7 377.4,409.2 378.4,408.6 378.9,408.1 378.7,407.4 378.4,406.8 378.0,406.0 377.5,405.4 377.0,404.9 376.4,404.9 375.9,405.2 375.3,405.1 374.6,404.8 373.8,404.0 372.9,403.3 372.4,402.8 371.8,402.3 371.3,401.9 371.1,401.4 370.6,401.0 369.8,400.3 369.0,400.0 368.1,399.6 367.6,399.6 367.1,400.2 366.9,400.8 366.4,400.5 365.8,400.6 365.4,401.2 365.0,401.9 364.9,402.5 364.3,403.0 363.4,402.8 362.9,403.3 363.3,402.7 362.9,402.1 362.4,401.6 361.4,401.6 360.8,401.6 360.4,401.1 359.8,400.9 359.1,401.0 358.6,401.3 358.3,401.9 358.8,402.2 359.0,403.4 359.3,404.0 358.7,403.9 358.1,403.8 357.4,403.8 356.9,403.3 357.0,402.5 357.0,401.5 357.0,401.0 357.0,400.3 356.8,399.2 356.6,398.5 356.0,396.8 355.7,396.0 355.4,395.4 354.9,394.5 354.4,393.6 353.1,391.9 352.2,391.0 351.4,390.1 350.3,388.9 349.9,388.2 349.4,386.7 349.2,386.1 349.0,385.6 348.7,385.0 348.2,384.2 347.7,383.5 347.3,383.0 346.6,382.0 346.0,381.2 345.7,380.6 345.3,380.1 344.9,379.6 344.3,378.9 343.3,378.0 342.8,377.5 342.3,377.1 341.6,376.5 341.0,376.1 340.4,375.6 339.6,375.1 339.0,374.8 338.1,375.0 337.6,375.4 337.0,375.2 336.2,374.6 335.6,374.5 335.0,374.4 334.4,374.5 333.1,375.3 332.5,375.7 332.1,376.5 332.3,377.5 332.9,377.8 332.3,378.3 331.8,377.8 331.3,378.1 330.6,377.7 330.0,377.2 329.5,377.0 328.8,376.9 328.0,376.3 327.5,376.2 326.9,376.2 326.1,375.5 324.8,374.8 324.1,374.4 323.5,374.2 322.9,373.9 322.2,373.7 321.6,373.5 321.0,373.3 320.3,373.2 319.4,373.0 318.8,372.9 318.2,372.9 317.7,372.9 317.1,373.1 316.7,373.8 316.1,373.9 315.4,373.9 314.9,373.9 314.3,374.0 313.3,374.3 312.7,374.6 312.2,374.8 311.5,375.2 310.9,375.7 310.0,376.4 309.4,377.0 309.0,377.7 307.7,378.3 307.0,378.2 306.5,378.0 305.9,377.2 306.0,376.5 305.7,375.9 305.5,375.2 305.0,374.3 304.7,373.8 304.3,373.1 303.8,372.1 303.0,371.2 302.6,370.6 302.1,370.1 301.5,369.5 300.8,368.9 300.2,368.5 299.4,367.9 298.2,367.2 297.1,366.7 296.5,366.5 296.0,366.4 295.4,366.3 294.9,366.4 294.4,366.5 293.9,366.3 293.2,366.3 292.7,366.4 292.1,366.7 291.5,366.3 291.0,365.9 290.4,365.4 289.9,365.0 289.3,364.7 288.8,364.4 287.7,364.0 287.2,364.0 286.5,364.2 286.0,364.4 285.3,364.9 284.6,363.5 284.1,362.8 283.2,361.5 282.8,360.8 282.3,360.1 281.9,359.6 281.2,358.6 280.7,358.0 279.9,357.1 279.3,356.4 278.8,355.9 278.3,355.4 277.5,354.4 275.8,352.5 274.9,351.8 274.3,351.3 273.7,350.8 272.6,349.8 271.8,349.3 270.6,348.6 269.8,348.1 269.3,347.8 268.2,347.3 267.0,346.8 266.4,346.6 265.9,346.6 266.5,346.2 266.0,346.2 265.2,346.2 265.4,345.7 265.2,345.1 264.9,344.5 265.1,343.8 264.5,342.3 264.3,341.5 264.0,340.7 263.7,340.1 263.4,339.4 263.0,338.8 262.7,338.2 262.4,337.6 262.0,337.1 261.6,336.4 261.2,335.9 260.7,335.3 260.2,334.9 259.7,334.5 259.1,334.2 258.6,334.2 258.1,333.8 257.5,333.3 256.9,333.1 256.3,332.8 255.7,332.2 255.3,331.5 254.5,330.8 253.5,330.5 252.8,330.3 252.3,329.8 252.0,329.3 251.3,328.9 250.4,328.3 249.8,327.8 249.1,327.6 248.5,327.7 247.8,327.8 246.5,328.3 245.9,328.4 245.5,327.9 244.9,327.2 244.5,326.5 244.2,325.2 243.6,324.7 242.9,324.4 242.8,323.8 242.3,323.1 242.0,322.5 241.2,321.6 241.0,321.0 240.5,320.3 240.7,319.8 240.4,318.9 239.8,318.2 239.4,317.4 239.1,316.7 238.8,315.9 238.5,315.4 238.0,314.9 237.3,313.7 236.9,313.2 236.5,312.7 235.7,311.9 235.0,311.3 234.3,310.8 233.7,310.4 233.1,310.0 232.1,309.2 231.6,308.9 231.1,308.6 229.6,307.8 229.0,307.5 228.2,307.2 226.8,306.6 226.2,306.4 225.7,306.2 225.1,306.0 224.2,305.7 223.4,305.5 222.3,305.2 221.7,305.1 221.1,305.0 220.4,304.9 219.8,304.8 219.3,304.7 218.4,304.8 218.2,304.2 217.7,304.0 217.1,304.0 216.5,304.1 215.8,304.3 215.3,304.5 214.9,305.2 214.7,305.7 214.5,306.5 213.9,306.9 214.0,307.7 213.4,307.5 212.8,307.5 212.3,307.9 212.1,307.3 211.4,306.8 210.9,306.3 210.4,306.1 209.5,305.9 209.1,305.0 209.1,304.2 209.2,303.6 209.4,302.9 209.9,302.4 210.4,302.9 211.1,302.9 211.9,303.0 212.4,303.2 213.0,302.6 213.3,302.1 213.4,301.6 213.6,301.0 213.8,300.1 213.8,299.6 213.9,298.8 213.8,298.3 213.8,297.8 213.4,296.9 213.1,296.3 212.8,295.8 212.1,294.9 211.4,294.9 211.1,295.5 210.4,295.0 209.7,293.7 209.6,293.2 209.4,292.4 208.9,292.1 208.4,291.6 208.6,290.9 207.8,290.3 207.0,289.8 206.4,289.6 205.4,289.2 204.9,288.8 204.7,288.3 204.6,287.8 204.1,286.4 203.5,285.3 203.1,284.7 202.5,284.2 202.0,283.8 201.3,283.4 200.8,283.1 200.1,282.8 199.5,282.6 198.1,282.2 197.6,282.0 197.0,281.9 196.4,281.7 195.3,281.6 194.5,281.4 194.0,281.5 192.8,280.7 191.9,280.0 192.5,279.5 193.0,278.9 193.2,278.4 193.3,277.9 193.4,277.4 193.4,276.8 193.4,276.3 193.1,275.4 193.5,274.7 193.9,274.2 193.4,273.0 192.8,272.4 191.9,271.8 190.3,270.9 189.7,270.7 189.2,270.5 188.6,270.3 188.1,270.2 187.3,270.2 186.6,270.1 185.9,270.1 184.7,270.1 184.1,270.2 183.4,270.3 182.4,270.7 182.6,271.2 182.4,271.8 182.3,272.3 181.5,272.3 181.0,271.8 180.2,271.4 179.9,270.7 179.4,269.4 179.6,268.9 179.4,268.4 179.4,267.9 180.2,267.8 180.7,267.7 180.9,267.2 180.6,266.5 181.1,266.0 181.5,264.2 181.7,263.2 181.8,261.6 181.8,260.8 181.9,259.9 181.9,259.3 181.9,258.5 181.9,257.9 181.8,257.2 181.8,256.3 181.7,255.7 181.6,255.0 181.5,254.3 181.5,253.8 181.3,253.0 181.2,252.4 181.1,251.7 180.7,250.5 180.5,250.0 180.4,249.5 180.1,248.9 179.9,248.4 179.4,247.9 178.8,247.2 178.2,246.8 177.7,246.2 177.7,245.6 177.6,245.0 177.3,244.4 176.8,244.3 176.3,244.3 176.9,244.3 176.9,243.5 176.7,242.9 176.1,241.5 175.6,241.3 174.7,239.6 174.1,238.5 173.5,237.9 172.7,237.4 172.2,237.3 171.6,236.7 171.7,236.2 171.1,235.0 171.0,234.3 170.6,233.6 169.9,232.4 170.2,231.8 170.1,231.1 170.6,230.5 171.0,229.6 170.8,230.2 170.2,230.0 170.3,230.7 170.1,230.2 169.8,229.5 169.7,229.0 169.6,228.5 169.5,227.9 169.4,227.4 169.4,226.7 169.4,226.2 169.1,224.9 168.7,223.9 169.0,223.3 169.1,222.7 169.0,221.9 168.8,220.9 168.8,219.7 168.7,218.9 168.6,218.3 168.3,217.0 168.2,216.2 168.0,215.2 167.9,214.7 167.6,214.0 167.1,212.5 167.1,211.7 166.9,211.1 166.6,210.4 166.2,209.7 165.5,208.5 165.3,208.0 164.5,206.9 163.4,205.5 162.9,205.0 162.5,204.4 162.0,204.0 161.5,203.5 160.9,202.9 159.9,202.0 159.3,201.5 158.7,201.1 158.0,200.7 156.9,200.3 156.4,200.0 155.8,199.6 155.3,199.6 154.9,200.1 153.9,200.5 153.2,199.8 152.7,199.3 152.1,199.0 151.3,198.0 150.9,197.5 150.4,197.6 149.9,197.5 149.3,197.0 148.9,196.3 148.6,195.8 148.1,195.8 147.5,196.1 147.2,196.8 146.9,196.2 147.0,196.8 147.3,197.6 147.8,198.2 148.0,198.7 148.6,198.9 148.0,199.2 147.8,199.8 147.3,199.2 146.5,198.8 145.8,198.4 145.3,198.1 144.7,197.7 143.8,197.1 143.1,196.4 142.7,195.7 141.9,195.3 140.8,194.5 140.0,193.8 139.5,193.6 138.9,193.7 138.5,194.4 137.9,193.8 137.2,192.8 137.3,192.3 136.4,191.8 135.4,191.2 135.4,190.7 134.6,189.8 134.0,189.7 133.5,189.6 133.0,189.2 132.3,188.7 132.0,188.1 131.6,187.6 131.0,187.8 130.0,187.5 129.3,187.2 129.0,186.7 128.5,186.3 127.6,186.6 127.4,186.0 126.9,185.7 127.2,185.2 126.9,184.7 126.2,184.2 125.5,183.7 124.6,183.1 124.0,183.0 123.4,182.5 122.9,182.2 122.1,181.8 121.6,181.5 120.8,181.3 120.3,181.0 119.7,180.6 119.3,181.2 118.8,181.4 118.9,182.0 118.8,182.9 119.0,183.6 118.2,183.4 117.6,183.1 117.1,183.0 116.6,182.7 116.0,182.6 115.8,182.1 116.0,181.5 116.1,181.0 115.8,180.4 115.5,179.9 115.0,179.7 114.5,179.5 113.9,179.3 113.1,179.1 112.5,178.9 111.8,178.7 109.8,178.3 109.2,178.2 108.6,178.0 108.1,177.7 106.9,177.8 105.9,177.5 105.5,176.9 105.4,176.4 104.8,176.4 104.8,176.9 104.3,177.1 103.7,176.8 102.9,176.9 100.9,176.3 101.5,176.2 101.4,175.7 100.4,175.6 99.6,175.6 98.9,175.6 99.4,175.8 98.4,175.9 97.8,175.5 97.1,175.5 96.3,175.8 95.1,176.4 94.6,176.7 94.3,177.2 93.4,177.8 92.8,177.8 92.2,178.1 91.7,178.6 91.0,179.2 90.4,179.5 89.8,179.7 89.1,179.9 88.7,180.4 88.0,180.8 86.8,181.6 86.1,181.8 85.4,182.3 85.1,182.9 85.6,182.6 85.3,183.2 84.5,183.6 84.0,183.9 83.3,184.4 83.0,184.9 82.8,185.5 83.5,186.2 83.3,186.7 83.0,187.3 82.4,187.8 81.8,188.5 81.7,189.0 81.7,189.9 82.0,190.4 81.4,190.9 80.9,191.3 80.3,191.3 79.6,191.5 78.3,192.1 77.6,192.6 76.4,192.9 75.9,193.1 75.1,193.7 74.5,194.6 74.1,195.1 73.3,196.3 73.0,197.0 72.8,197.8 72.7,198.3 72.7,198.9 72.7,199.7 72.6,200.2 71.9,200.7 71.3,201.4 70.8,201.9 70.3,202.4 70.0,202.9 69.7,203.6 69.5,204.2 69.6,204.7 70.1,205.5 70.1,206.0 69.5,206.0 69.0,206.1 68.4,206.7 68.3,207.3 67.6,207.8 67.1,208.0 66.5,208.3 65.8,209.0 65.8,209.6 65.2,210.1 64.5,210.2 64.0,210.2 63.4,210.4 62.9,211.0 61.9,211.5 60.9,211.7 60.4,212.2 59.6,212.7 58.8,212.9 58.3,212.9 57.7,213.3 57.0,213.3 56.0,213.4 55.5,213.7 54.8,213.8 54.5,214.4 53.9,214.6 53.4,214.3 52.9,214.2 52.4,214.5 51.8,214.4 51.3,214.8 50.7,215.2 49.9,215.7 49.2,215.8 48.6,215.6 48.0,215.7 47.2,216.5 46.7,217.0 46.1,217.0 45.4,216.7 44.7,216.6 43.9,216.4 43.2,216.2 42.7,216.0 42.0,216.0 41.4,216.2 41.2,216.7 40.1,216.5 39.7,215.9 39.1,213.8 38.9,213.0 38.6,212.5 38.3,211.8 38.5,211.0 39.3,210.0 40.4,209.4 41.0,209.4 41.6,209.0 41.4,207.9 42.0,206.7 41.8,206.2 42.3,205.8 42.8,205.5 43.3,205.4 44.7,205.0 45.3,204.4 45.9,204.3 46.0,203.6 46.4,203.1 46.4,201.6 46.4,201.0 47.6,200.1 48.2,200.0 48.3,199.5 48.5,199.0 48.8,198.5 48.8,198.0 49.0,197.4 48.7,196.9 48.0,196.0 47.4,195.3 46.9,194.9 46.7,194.2 47.0,193.6 47.2,193.1 46.9,192.4 47.4,191.7 47.0,191.2 46.5,191.2 46.0,191.1 45.3,191.1 45.1,191.7 44.9,192.3 44.4,192.9 43.8,192.9 42.9,192.8 42.3,192.7 41.6,193.0 40.9,193.1 40.2,193.3 39.6,193.5 39.1,193.2 38.5,193.5 38.0,193.8 37.4,194.0 36.7,194.2 35.7,194.0 35.4,195.0 34.4,194.7 33.7,194.3 33.1,194.6 32.3,194.8 31.9,193.9 31.7,193.3 31.1,193.0 30.5,193.0 29.9,193.0 29.2,192.9 28.7,193.2 27.9,192.7 27.3,192.1 27.0,191.6 26.6,190.9 25.9,191.3 25.5,190.8 25.2,190.3 24.7,190.1 24.5,189.3 23.9,189.3 23.3,188.7 22.8,189.0 22.3,189.1 21.7,188.6 21.1,188.1 20.2,187.8 19.8,187.2 19.0,187.0 17.8,187.3 17.3,187.5 16.8,186.9 16.1,186.7 15.7,186.2 15.6,185.6 15.6,184.1 15.0,183.4 14.5,183.5 13.9,182.8 13.9,182.2 13.7,181.3 13.0,180.9 12.5,180.3 12.3,179.8 12.3,179.2 11.7,178.8 10.8,178.5 11.0,178.0 11.2,177.0 11.2,176.2 11.3,175.6 11.1,174.9 12.0,174.4 12.6,174.5 13.5,174.2 13.1,173.4 12.2,172.8 11.9,172.2 11.8,171.6 11.1,171.3 10.5,170.8 10.5,170.3 9.9,169.7 9.5,168.6 9.4,167.6 10.0,167.0 10.3,166.5 10.6,166.0 11.2,166.0 11.9,165.8 12.4,165.5 12.7,165.0 13.2,164.7 13.2,164.0 13.2,163.3 13.7,162.7 14.1,162.2 14.2,161.7 14.8,161.9 14.8,161.3 14.3,160.8 14.0,159.7 14.3,159.2 14.5,158.6 14.7,158.1 15.6,157.6 16.3,157.3 17.0,157.4 17.5,157.3 18.4,157.6 19.3,158.0 19.8,158.0 19.9,157.4 19.7,156.9 19.5,156.2 19.0,155.8 18.5,155.5 18.0,154.9 17.6,154.1 17.5,153.5 17.7,152.7 17.6,152.1 17.2,151.3 16.7,151.0 17.1,150.3 17.4,149.5 17.8,148.7 17.3,148.6 17.0,147.6 16.5,147.5 16.0,147.2 15.4,147.2 14.9,146.8 13.8,146.2 13.1,146.8 12.6,147.2 11.3,146.9 10.8,146.8 10.2,146.6 9.4,146.1 8.9,145.6 8.2,145.1 7.6,144.7 7.2,144.2 6.7,143.9 6.5,143.4 5.9,143.3 5.4,143.0 5.4,142.5 5.4,141.9 5.8,141.4 5.2,140.9 5.7,140.3 6.1,139.7 6.1,138.9 5.5,138.4 5.1,137.7 5.5,137.1 5.4,136.5 5.3,136.0 4.4,135.5 3.9,135.6 3.3,135.5 2.1,135.6 1.6,134.8 1.7,134.3 1.7,133.7 1.6,133.2 1.6,132.3 0.9,132.0 0.8,131.2 0.2,130.5 0.0,129.9 0.3,129.3 0.9,129.3 2.2,128.8 2.3,128.3 2.5,127.8 3.0,127.8 3.8,127.6 4.4,127.7 5.3,128.1 5.8,127.7 6.1,127.2 6.6,126.6 7.1,126.7 7.8,127.1 8.6,127.4 9.1,127.8 9.9,128.3 10.2,128.8 10.8,128.6 11.4,128.3 12.3,128.2 12.2,127.5 11.9,126.9 12.3,126.3 13.0,126.4 13.8,126.2 14.8,126.1 14.9,125.6 15.4,124.8 15.5,124.0 16.0,123.8 16.8,123.6 17.5,123.0 18.2,123.4 18.9,123.0 19.5,122.7 20.4,123.7 21.1,123.3 21.2,122.8 21.8,122.2 22.2,121.6 22.8,121.5 23.3,121.3 23.6,120.8 23.5,120.3 23.4,119.6 23.6,119.1 23.2,118.5 23.0,118.0 22.8,117.2 22.5,116.7 22.5,116.1 23.0,116.2 23.6,115.9 23.5,115.4 23.6,114.9 24.1,114.6 24.8,114.1 24.8,113.4 25.0,112.7 25.9,111.5 25.8,111.0 25.3,110.8 24.7,110.4 24.1,109.8 22.9,109.3 22.9,108.8 22.5,108.3 22.2,107.5 22.4,107.0 21.2,106.6 20.6,106.6 20.0,106.7 19.8,106.2 20.2,105.7 20.1,105.2 19.6,105.1 19.0,105.1 18.2,104.8 17.8,104.2 18.0,103.5 17.6,103.0 17.5,102.3 17.6,101.8 17.4,101.2 17.4,100.7 17.7,100.0 17.1,99.5 17.1,98.3 17.3,97.8 17.2,97.3 17.2,96.8 17.7,96.5 18.0,96.0 17.5,95.5 16.9,95.4 16.6,94.9 15.6,95.0 14.9,95.2 14.2,94.9 14.2,94.4 13.8,93.7 13.6,93.1 12.2,93.0 11.4,92.6 10.9,91.9 10.4,91.6 10.0,90.8 9.5,90.1 9.7,89.6 9.8,89.0 9.3,88.0 9.4,87.2 9.2,86.4 9.4,85.8 9.8,84.7 9.6,83.8 10.1,82.9 11.2,82.5 11.7,82.9 12.2,83.1 12.6,82.5 13.2,82.2 14.2,82.6 15.2,82.3 15.7,82.3 16.1,81.6 17.0,81.1 17.6,80.9 18.2,80.8 18.7,79.8 18.5,79.2 19.3,78.0 19.8,77.6 20.3,77.5 20.8,78.0 21.3,78.4 21.3,78.9 22.3,80.2 22.7,81.0 22.9,81.6 23.6,81.7 24.3,81.2 25.3,80.5 25.8,80.6 26.1,81.4 26.7,81.7 27.2,81.7 27.3,81.1 27.7,80.5 28.2,79.9 28.7,79.7 29.5,79.7 30.1,79.8 30.6,79.3 31.2,78.6 31.6,77.9 32.2,78.1 32.7,78.2 33.3,78.6 34.0,78.3 34.5,78.8 35.2,79.2 35.8,79.5 36.4,79.0 36.9,78.8 37.4,78.6 38.0,78.2 38.4,77.6 39.2,77.1 39.8,77.2 39.9,76.7 40.0,76.1 41.2,75.5 42.3,75.8 42.9,75.8 43.1,75.1 43.0,74.6 43.2,74.1 44.1,73.8 44.7,73.9 44.8,74.5 45.5,74.9 46.1,75.0 46.6,74.9 47.3,75.0 47.9,74.7 48.4,74.7 48.9,75.2 49.2,75.8 49.9,76.0 50.5,76.4 50.5,76.9 50.9,78.0 51.5,78.1 52.2,77.2 53.1,77.2 53.8,77.9 54.5,78.5 55.0,78.2 55.5,77.9 56.0,78.1 56.7,78.3 57.2,78.4 58.0,78.1 57.8,77.6 57.8,76.7 58.2,75.7 58.2,75.0 59.0,74.4 59.5,73.6 61.2,73.4 62.4,73.4 63.0,73.5 63.7,72.6 64.3,72.6 64.5,71.7 64.6,70.9 65.2,70.6 65.1,69.9 64.9,69.2 64.8,68.5 65.2,67.4 65.3,66.8 66.2,66.8 66.9,66.5 67.4,66.5 68.2,66.3 68.9,65.8 69.0,65.2 69.4,64.7 70.0,64.5 70.5,64.3 70.8,63.8 70.6,63.3 70.7,62.7 71.0,62.2 71.3,61.7 70.8,61.0 70.7,60.5 70.2,59.1 69.6,58.6 69.1,58.0 68.9,57.5 68.4,57.0 67.9,56.9 67.8,56.4 68.5,55.6 69.0,55.2 69.3,54.6 70.1,53.9 70.8,54.0 71.8,54.2 72.4,53.9 73.1,53.7 73.5,53.2 74.0,51.8 74.5,51.4 75.1,51.4 75.7,51.1 75.9,50.3 76.1,49.8 76.8,49.8 77.5,49.2 78.0,49.1 78.3,48.4 78.3,47.9 77.9,47.3 77.3,47.2 77.5,46.3 78.1,46.0 78.9,45.7 79.4,45.2 80.0,44.5 80.7,44.2 81.2,44.3 81.7,44.2 82.3,43.8 83.4,43.5 84.0,43.5" />
<polygon points="272.4,205.1 272.2,206.0 271.7,206.4 271.0,206.5 270.5,206.5 270.1,205.9 269.3,206.0 268.4,206.1 268.5,205.2 268.6,204.5 268.5,203.8 268.1,203.0 268.7,202.8 269.2,202.6 270.3,201.8 271.1,201.2 271.6,200.9 272.2,200.8 272.7,200.4 273.2,200.6 272.8,201.5 272.9,202.3 273.2,202.9 273.4,203.4 273.0,203.9 272.6,204.7" />
<polygon points="285.8,345.2 286.3,346.0 285.7,345.3" />
<polygon points="276.1,335.3 275.5,335.6 276.1,335.3" />
<polygon points="107.7,76.1 107.0,75.9 107.2,75.0 107.8,74.7 107.8,75.4 107.8,76.0" />
<polygon points="325.2,89.5 324.9,89.0 325.2,89.5" />
<polygon points="148.4,200.8 147.9,200.2 148.8,199.6 148.5,200.3" />
<polygon points="99.6,176.2 99.1,176.4 98.2,176.2 99.1,176.4 99.6,176.1" />
<polygon points="104.8,177.4 104.0,177.2 103.3,177.0 104.4,177.3" />
<polygon points="102.5,176.9 101.8,176.8 100.5,176.4 102.2,176.8" />
<polygon points="176.4,275.9 176.6,276.4 177.2,276.7 177.6,277.4 177.3,278.0 177.1,278.5 176.9,279.2 177.0,279.8 177.1,280.9 177.3,281.5 176.8,282.0 176.1,282.3 175.6,282.6 175.0,282.8 175.7,283.0 176.0,283.6 176.8,284.1 177.4,285.4 177.2,285.9 176.7,286.2 176.3,285.7 175.7,285.9 175.0,285.9 174.4,284.7 173.8,283.8 173.6,283.2 173.0,282.6 171.9,282.8 171.9,283.3 172.1,283.9 171.9,284.4 171.6,283.9 171.5,283.1 171.0,283.0 170.5,283.4 170.4,283.9 170.4,284.4 169.6,284.4 169.0,284.0 168.5,283.8 168.0,283.7 167.8,284.5 168.1,285.0 167.2,285.0 166.5,284.7 165.6,284.6 164.5,284.8 163.3,284.8 162.4,284.2 162.0,283.4 161.5,282.6 161.5,281.6 161.6,281.1 162.7,280.2 163.2,280.0 164.0,279.9 164.5,279.9 165.1,279.9 166.0,280.0 166.6,280.3 166.9,280.8 167.4,281.1 168.0,281.2 168.3,280.7 168.8,280.3 169.3,280.2 169.6,279.2 169.1,278.8 169.8,278.9 170.6,279.1 171.6,279.0 172.3,279.2 171.5,279.7 172.7,280.5 173.3,280.5 173.6,279.8 173.6,279.3 174.3,278.7 174.6,278.2 175.0,277.6 175.1,277.1 175.7,275.9 176.2,275.8" />
<polygon points="199.4,306.4 200.2,306.8 200.6,307.5 201.1,308.3 201.1,308.8 201.2,309.3 201.6,310.0 201.5,310.5 201.0,310.9 200.4,310.5 199.4,309.4 199.2,308.8 198.5,308.7 198.4,308.2 198.9,308.0 199.3,307.3 199.1,306.5" />
<polygon points="148.5,264.4 149.1,264.8 148.8,265.9 147.8,266.9 147.5,267.4 146.9,267.3 146.5,266.2 146.8,265.6 147.0,264.4 147.2,263.9 147.9,263.1 148.6,263.4 148.5,264.4" />
<polygon points="172.0,309.4 172.6,309.9 172.9,310.9 172.6,311.4 172.1,311.8 171.2,311.7 170.8,311.0 170.8,310.5 170.9,309.9 171.4,309.4 172.0,309.4" />
<polygon points="161.2,293.9 161.5,295.0 160.9,295.5 159.9,295.2 159.2,295.2 158.9,294.6 159.3,294.1 159.9,294.3 160.6,293.4 160.6,292.8 160.5,292.2 160.8,292.8 161.2,293.9" />
<polygon points="210.5,314.5 210.7,315.0 210.1,314.9 210.0,315.4 209.4,315.0 210.0,314.6" />
<polygon points="151.4,239.2 151.7,240.0 150.8,240.3 150.9,239.5" />
<polygon points="303.6,398.0 303.5,398.5 303.3,399.6 303.5,400.4 302.9,400.4 303.1,399.9 302.5,399.4 302.7,398.7 303.2,398.1 303.7,397.7 304.1,397.2 304.9,397.1 304.2,397.6 303.7,398.0" />
<polygon points="326.7,405.4 326.1,405.8 326.6,404.9 326.7,405.4" />
<polygon points="298.4,397.7 297.8,397.8 298.1,397.0 298.0,396.4 298.4,396.9 298.4,397.7" />
<polygon points="308.0,395.0 307.5,394.9 307.9,394.4 308.3,394.9" />
<polygon points="348.6,406.2 349.2,406.2 349.9,406.7 350.5,406.6 351.3,406.7 352.1,406.9 352.7,407.1 353.0,408.0 353.3,408.6 353.4,409.1 352.9,409.3 352.2,409.5 351.7,409.9 351.2,410.1 350.7,409.9 350.1,410.0 349.5,410.0 349.0,410.3 348.3,409.9 347.8,409.5 348.3,408.8 348.1,408.2 348.1,407.7 348.5,406.8 348.3,406.3" />
<polygon points="368.5,418.0 368.6,418.9 368.0,419.1 367.3,419.1 366.0,419.6 365.4,418.9 365.5,418.3 366.1,418.1 366.7,418.1 367.3,418.2 368.2,418.3" />
<polygon points="356.0,406.0 355.6,406.6 355.9,407.1 355.3,406.6 354.8,406.6 355.4,406.0 355.4,405.3 356.0,405.4 356.0,405.9" />
<polygon points="421.4,314.0 421.1,313.4 421.6,312.9 421.8,313.7" />
<polygon points="512.5,414.0 512.4,414.6 511.6,414.3 512.3,414.0" />
<polygon points="422.4,313.0 422.8,312.3 422.4,313.0" />
<polygon points="554.2,436.1 554.2,436.7 554.2,436.1" />
<polygon points="422.6,312.3 422.6,311.7 422.6,312.3" />
<polygon points="447.0,457.5 446.5,457.5 447.0,457.3" />
<polygon points="285.6,601.9 285.1,601.5 284.7,601.0 285.2,600.4 286.0,600.3 286.6,599.7 286.8,598.8 287.1,597.7 287.3,596.9 287.6,596.3 287.4,595.8 286.6,595.1 286.2,594.2 286.5,593.7 286.8,593.1 287.1,592.5 287.6,591.6 287.9,590.7 288.0,590.1 287.8,589.5 288.2,588.7 288.5,588.1 289.0,587.4 288.5,587.2 288.0,587.1 288.5,586.9 289.3,586.3 289.7,585.8 290.4,585.0 290.9,583.8 291.4,583.5 292.4,583.6 293.0,583.7 293.5,583.6 294.5,583.2 295.0,582.8 295.4,582.3 296.0,581.8 295.9,581.3 295.8,580.8 296.4,580.4 297.0,580.5 297.6,580.9 298.5,580.6 298.9,580.1 299.3,579.6 299.7,578.8 299.4,577.9 298.8,576.8 298.6,576.3 299.0,575.7 299.5,575.3 299.4,575.8 299.9,576.2 300.5,576.0 301.2,575.9 301.5,576.5 301.3,577.0 301.4,577.7 302.6,578.7 302.5,579.3 302.6,580.2 302.9,580.7 303.4,581.4 303.7,582.2 304.3,582.8 305.6,583.8 306.2,584.2 306.8,584.0 306.9,584.5 307.3,585.4 308.1,585.7 308.8,585.6 309.4,585.5 310.0,585.4 310.6,585.2 311.1,585.0 311.8,584.7 312.4,584.5 312.9,584.2 314.4,583.2 315.1,582.7 315.9,582.2 316.7,581.8 317.3,581.3 317.2,580.5 317.0,579.7 316.8,579.1 316.3,578.6 315.9,578.0 316.6,577.6 317.1,577.0 317.5,576.5 317.3,576.0 317.9,574.9 318.5,574.4 319.1,574.4 319.8,574.6 320.4,574.8 321.1,574.6 321.4,575.4 322.0,575.7 322.8,575.7 324.1,575.2 325.3,574.4 325.5,573.6 326.0,573.6 326.6,573.5 327.1,573.6 327.6,572.8 328.2,572.3 329.1,571.8 329.8,572.6 329.7,573.1 330.8,573.9 331.5,573.9 331.8,574.4 331.9,574.9 332.2,575.6 332.4,576.2 332.1,576.9 332.2,577.4 331.9,578.0 332.7,578.9 333.4,579.3 334.0,579.6 335.6,579.8 336.2,579.8 336.8,579.8 337.5,579.6 338.1,579.4 339.2,578.8 339.3,578.1 339.8,578.4 340.4,578.6 340.9,578.7 340.9,579.4 341.0,580.1 340.9,580.6 340.9,581.2 341.1,581.8 341.7,582.4 342.4,583.1 343.8,583.8 344.3,583.9 344.9,584.4 345.5,584.9 346.1,585.0 346.9,585.5 347.6,585.8 348.2,585.8 349.2,586.0 349.8,585.9 350.3,586.0 349.7,586.0 349.9,586.6 350.7,586.9 351.3,586.9 351.8,587.2 352.3,587.1 352.8,587.0 353.4,586.9 354.4,586.7 355.0,586.6 355.5,586.3 356.1,586.2 356.7,586.0 357.4,585.7 358.0,585.4 359.4,584.6 360.4,584.0 361.4,583.4 362.0,582.9 363.1,582.6 363.7,582.7 364.3,582.6 365.1,582.4 365.6,582.1 366.3,581.9 366.8,582.4 367.3,582.7 368.0,583.1 368.5,583.2 369.1,583.1 369.6,583.1 370.3,583.3 371.3,583.1 372.0,582.7 372.6,582.5 373.5,582.9 374.0,582.7 374.5,582.9 375.2,583.0 376.2,583.1 376.8,583.2 377.7,583.2 378.5,583.0 379.5,583.3 380.0,583.3 380.7,583.2 381.5,582.9 382.1,582.4 382.7,582.3 383.4,582.6 383.9,582.5 384.6,582.1 385.1,581.8 385.7,581.4 386.3,580.8 387.1,580.6 387.6,581.0 388.2,581.1 388.9,581.1 389.9,580.8 390.5,580.6 391.4,580.4 391.9,580.2 392.5,579.6 393.0,579.1 393.6,579.0 394.4,579.1 394.9,578.9 395.4,578.6 395.9,578.2 396.6,578.2 397.2,577.9 397.8,577.3 398.4,576.9 399.0,576.3 399.6,575.7 400.2,574.8 400.7,574.1 401.6,572.9 402.3,571.8 403.3,572.2 404.1,572.2 404.7,572.4 405.7,572.0 406.4,571.7 407.1,571.5 407.6,571.3 408.3,571.1 408.8,571.1 409.7,570.8 410.4,569.9 411.0,569.3 411.5,569.6 412.2,570.1 412.7,570.5 413.4,571.3 413.9,571.8 414.5,571.9 415.8,571.8 416.9,571.7 417.7,571.5 418.3,572.1 418.4,572.7 419.0,573.0 419.5,573.4 420.1,573.4 420.7,573.3 421.4,572.9 422.0,572.4 423.0,571.9 423.6,571.5 424.2,571.1 424.7,570.6 425.0,570.1 425.4,569.6 425.9,569.1 426.3,568.5 426.7,567.6 426.9,566.9 427.2,566.1 427.3,565.4 427.4,564.9 427.1,564.4 427.1,563.8 426.6,563.3 427.1,563.2 427.8,564.1 428.0,564.7 427.9,565.6 427.5,566.6 428.1,567.0 428.7,567.2 430.2,567.2 430.7,567.0 431.4,566.7 432.0,566.5 432.6,566.4 433.3,566.2 434.1,565.8 434.7,565.6 435.6,565.1 436.6,564.5 437.7,563.9 438.3,563.4 438.9,562.8 439.5,562.2 440.4,561.4 440.9,560.9 441.5,560.4 442.4,560.1 443.1,560.2 443.6,560.6 444.3,561.0 446.1,561.6 446.6,561.7 447.2,561.7 447.7,561.6 448.3,561.8 447.0,562.5 446.4,562.7 445.7,563.0 445.1,563.4 444.4,564.3 444.2,565.0 444.1,565.6 444.0,566.1 443.8,566.6 443.8,567.2 444.0,566.7 444.6,566.7 444.4,567.3 443.7,568.5 442.6,570.5 442.3,571.4 442.2,572.0 441.7,573.2 441.5,573.8 441.1,575.0 440.7,575.5 440.4,576.0 440.1,576.6 439.6,577.1 438.7,578.3 438.5,578.9 438.1,579.4 437.7,580.1 436.9,581.2 436.1,582.5 435.8,583.1 435.4,583.7 434.9,584.4 434.5,585.1 434.2,585.6 434.2,586.2 433.6,586.7 432.9,587.7 432.3,588.4 432.1,588.9 431.9,589.4 432.4,590.0 432.1,590.6 431.5,590.4 431.0,591.0 430.7,591.5 430.5,592.6 430.2,593.1 429.7,593.6 429.4,594.2 428.6,595.8 428.2,596.4 428.0,597.0 427.8,597.5 427.8,598.2 428.3,598.9 428.6,599.4 428.5,599.9 428.2,600.6 427.9,601.3 427.7,601.8 427.6,602.5 427.8,603.1 427.5,603.8 426.9,604.4 426.7,605.4 426.6,606.2 426.7,607.2 426.9,607.8 427.0,608.3 426.5,608.7 426.1,609.5 425.6,609.7 425.5,610.5 424.7,611.1 424.1,611.5 424.1,612.0 423.7,612.6 423.3,613.6 422.7,614.5 422.7,615.1 422.8,616.0 422.8,616.5 422.9,617.2 423.0,617.8 423.1,618.3 423.3,619.7 423.4,620.5 423.4,621.3 423.4,622.0 423.4,622.5 423.6,623.7 423.8,624.3 423.9,624.9 424.1,625.4 424.9,625.8 425.8,625.8 426.4,626.2 427.1,626.8 427.6,627.0 428.7,627.1 429.2,627.3 429.3,626.8 429.9,626.7 430.3,627.5 431.1,628.2 431.8,628.9 432.0,629.5 432.5,629.8 432.1,630.4 431.5,629.9 430.9,629.9 430.9,631.1 430.6,630.3 430.5,629.7 429.9,629.7 429.5,630.4 429.4,631.0 429.1,631.6 428.9,632.1 429.0,632.7 429.1,633.3 430.0,634.1 429.9,635.0 430.2,635.6 430.8,635.9 431.3,635.7 431.7,635.2 432.3,636.0 431.8,635.9 431.3,635.8 431.1,636.3 431.1,637.0 431.8,637.7 432.5,638.1 433.0,638.2 433.7,637.9 433.3,638.4 433.8,638.5 434.3,638.2 435.0,638.3 435.5,639.3 435.4,640.2 435.1,640.8 435.5,641.3 435.4,641.9 435.1,641.3 434.6,641.1 434.1,641.6 434.4,642.8 435.1,643.2 435.6,642.6 436.3,642.7 436.8,643.5 437.5,644.3 437.7,645.0 437.2,645.0 436.6,645.0 436.0,644.3 435.5,644.6 435.0,644.9 434.2,645.2 434.0,646.0 433.9,646.6 433.8,647.1 433.1,647.3 432.3,647.4 431.8,648.0 431.3,647.9 431.0,648.5 430.4,649.0 429.8,649.7 429.6,650.4 428.9,650.9 428.5,651.5 428.2,652.3 428.1,652.8 427.9,653.6 428.0,654.3 427.4,654.5 427.0,655.0 426.7,655.6 426.4,656.3 426.5,656.9 426.7,657.7 426.6,658.5 426.0,658.8 426.2,659.4 426.1,660.1 426.4,660.6 426.5,661.4 426.9,662.2 427.5,662.4 427.5,663.2 427.8,664.2 427.9,665.1 428.5,665.8 428.7,666.9 428.5,667.4 428.0,667.0 427.4,667.1 427.0,667.8 426.4,668.4 425.9,668.8 425.4,668.3 424.9,668.0 424.3,667.1 424.0,666.6 423.2,665.9 422.6,665.6 422.0,665.5 421.3,665.6 420.5,666.1 419.2,666.2 418.7,665.8 417.9,665.2 417.3,664.8 416.8,664.5 416.3,664.3 415.5,664.2 415.0,664.1 414.4,664.2 413.8,664.3 412.9,664.8 412.4,665.3 413.0,665.7 412.1,665.2 411.5,665.4 411.0,665.8 410.5,666.1 409.6,665.8 409.0,665.8 408.5,665.4 408.0,665.2 407.1,665.3 406.6,665.3 406.1,665.6 405.2,665.3 404.6,664.5 404.1,664.0 403.6,663.7 403.0,663.5 402.5,663.0 401.8,662.7 400.7,662.5 400.2,662.4 398.0,661.8 397.5,661.8 396.8,662.0 396.0,661.6 395.3,661.6 394.7,661.7 394.1,661.0 393.2,659.9 392.7,659.7 392.8,659.2 392.7,658.6 392.3,657.8 392.1,657.0 391.9,656.5 391.5,655.9 391.0,655.1 390.6,654.3 390.3,653.8 389.4,652.6 389.0,652.0 388.7,651.5 388.0,650.6 387.5,650.0 387.0,649.4 386.0,648.3 385.2,647.6 384.5,647.0 383.8,646.3 383.0,645.7 382.1,645.1 381.6,644.8 380.7,644.4 380.1,644.3 378.3,643.5 376.8,642.9 376.2,642.7 375.4,642.6 374.7,642.5 374.0,642.4 373.4,642.2 372.2,642.0 371.5,642.0 370.9,642.0 370.0,642.2 369.3,642.2 368.1,642.2 367.0,642.3 366.4,642.4 365.8,642.7 364.4,643.3 363.9,643.1 363.2,643.3 362.6,643.3 361.9,643.1 360.6,642.4 360.4,641.8 359.8,641.1 359.3,640.7 358.7,640.4 358.2,640.4 357.2,640.4 356.3,640.4 355.7,640.4 354.9,640.3 354.3,639.9 353.7,639.1 353.2,638.9 352.6,638.9 351.8,638.3 351.3,638.0 350.5,637.7 350.0,637.1 349.8,636.5 349.4,635.9 348.8,635.4 348.3,635.1 347.5,634.7 347.0,634.1 346.4,633.6 345.5,633.1 344.9,632.4 344.3,632.0 343.7,632.0 342.7,632.0 342.2,631.7 341.6,631.7 340.8,631.9 339.8,631.6 339.1,631.6 338.2,631.2 337.6,630.9 337.0,630.1 336.5,629.5 335.9,629.2 335.4,629.0 334.8,628.5 334.0,628.0 333.4,627.7 332.1,627.5 331.5,626.7 330.9,626.2 330.4,625.9 329.9,625.8 329.3,625.8 329.1,625.3 328.9,624.6 328.6,624.1 327.9,623.3 327.3,622.9 327.0,622.4 326.6,621.9 326.0,621.3 325.5,621.3 325.0,620.7 324.0,619.7 323.2,619.3 322.5,619.3 321.9,619.4 321.3,619.4 320.1,619.1 319.0,618.9 318.3,618.9 317.8,619.0 317.3,619.4 316.2,619.7 315.7,619.4 315.8,618.8 315.4,618.3 314.6,617.1 314.0,616.5 313.4,616.0 312.9,615.4 312.0,614.9 311.5,614.8 310.6,614.6 310.0,614.7 309.5,614.6 308.8,614.6 308.1,614.4 307.5,614.4 306.2,614.5 305.5,614.4 303.5,614.6 302.7,614.8 301.8,615.1 301.3,615.3 300.7,615.5 299.7,615.8 299.1,615.9 298.6,616.2 298.0,616.2 297.1,615.2 296.5,614.6 295.7,613.6 295.3,613.0 295.0,612.4 294.9,611.9 294.4,611.1 293.7,610.6 292.3,609.9 291.7,609.8 291.0,609.9 289.8,610.0 289.3,609.3 288.6,608.7 288.3,608.2 287.6,607.6 287.3,607.1 287.2,606.2 287.2,605.7 287.3,605.1 287.1,604.5 286.7,603.9 286.4,603.3 286.1,602.5 285.6,601.9" />
<polygon points="263.4,664.4 263.8,664.9 264.3,665.2 264.9,665.3 265.4,664.9 266.2,665.7 266.7,666.1 267.4,666.5 267.8,667.6 267.8,669.0 267.6,669.7 266.5,670.7 265.6,670.8 264.7,670.7 264.1,670.2 263.8,669.7 263.5,669.0 262.8,668.8 262.6,668.2 262.0,667.3 261.2,666.7 261.0,665.7 261.1,665.1 261.4,664.6 261.9,664.5 262.5,664.1 263.4,664.4" />
<polygon points="411.9,547.7 412.2,548.8 412.0,549.3 412.1,549.8 412.7,550.1 412.7,550.7 412.2,550.6 412.0,551.9 412.3,552.6 412.1,553.1 411.5,553.1 411.3,552.6 410.8,551.9 410.2,551.8 409.7,551.7 409.1,551.0 408.8,550.4 409.0,549.8 409.1,549.3 409.1,548.7 409.5,548.2 410.1,547.9 410.8,548.1 411.3,548.0 411.9,547.7" />
<polygon points="406.8,544.2 407.2,545.0 407.3,545.6 407.1,546.1 407.2,546.9 406.7,547.4 406.0,547.2 405.1,546.6 404.5,546.5 404.0,546.3 403.4,545.9 403.5,545.3 403.8,544.5 405.1,544.3 405.8,544.5 406.3,544.3" />
<polygon points="412.4,554.4 413.6,555.3 414.3,555.9 414.5,556.4 414.6,557.0 414.6,557.5 413.8,557.8 413.3,557.6 412.5,556.9 411.9,556.6 411.3,555.7 411.3,555.1 412.0,554.6 411.9,554.0 412.5,553.8 412.6,554.3" />
<polygon points="295.5,747.9 296.0,747.9 296.7,748.1 297.5,748.2 298.2,748.2 298.7,748.3 299.2,748.2 300.4,748.2 300.9,748.4 300.9,749.4 301.0,750.0 300.5,750.0 299.7,749.9 298.7,749.8 297.7,749.1 296.0,748.7 295.5,748.8 294.9,748.6 295.3,748.0" />
<polygon points="276.8,592.7 276.8,592.1 277.3,592.2 277.9,591.8 278.6,591.8 278.7,592.4 279.1,593.0 279.9,592.5 280.4,592.6 280.8,593.1 281.3,593.4 281.5,593.9 281.4,594.4 280.6,594.3 279.9,593.6 278.8,593.5 278.3,593.7 277.8,593.9 277.0,593.7 276.7,592.8" />
<polygon points="423.8,530.8 422.7,530.3 422.3,529.7 422.8,529.2 423.4,528.4 423.9,528.2 424.4,528.3 425.0,528.6 424.8,529.2 424.4,529.8 424.3,530.4 423.8,530.8" />
<polygon points="265.7,589.5 265.8,590.3 266.1,590.8 266.5,591.3 267.2,592.1 266.3,592.1 265.5,591.9 264.8,591.6 264.7,591.0 264.4,590.4 264.2,589.6 264.7,589.4 265.5,589.5" />
<polygon points="392.7,546.6 391.8,546.7 391.3,546.8 390.4,546.0 390.3,545.3 390.9,545.0 392.0,545.2 392.4,545.8 392.4,546.3" />
<polygon points="320.8,540.1 321.5,540.3 321.1,541.5 320.5,541.9 319.8,541.9 319.7,540.6 320.3,540.2 320.8,540.1" />
<polygon points="280.4,589.1 279.7,589.3 279.2,589.1 278.8,588.4 278.9,587.9 279.4,587.3 279.9,587.9 280.1,588.4 280.4,589.1" />
<polygon points="285.7,594.9 285.6,595.5 285.8,596.3 285.7,596.8 285.8,597.4 285.9,598.0 285.3,597.0 285.2,596.4 285.1,595.9 284.7,595.4 284.9,594.9 285.4,594.8 286.0,594.3 285.7,594.9" />
<polygon points="312.9,724.8 313.3,725.6 313.2,726.1 312.1,726.2 311.5,725.3 312.1,724.8 312.7,724.9" />
<polygon points="380.9,549.2 380.4,549.0 380.2,548.4 380.4,547.9 381.1,547.6 381.6,548.2 381.5,548.7 380.9,549.2" />
<polygon points="416.4,540.8 416.3,540.1 416.7,539.5 417.3,539.5 417.4,540.1 416.4,540.8" />
<polygon points="286.5,596.0 286.0,595.4 286.5,595.9" />
<polygon points="69.6,424.3 69.7,423.5 70.2,423.5 70.4,422.9 70.0,422.3 69.4,421.9 68.9,422.0 68.7,422.6 68.5,423.1 68.0,423.4 67.6,424.2 67.6,424.7 67.7,425.5 67.0,424.4 66.8,423.2 66.6,422.0 66.7,421.5 67.6,421.1 68.7,420.6 68.9,419.4 69.1,418.9 69.3,418.4 69.7,417.9 69.6,417.3 69.1,417.1 68.2,416.9 68.2,416.4 67.6,415.8 66.9,414.9 66.4,414.7 66.3,414.1 67.1,413.4 67.5,412.7 67.8,412.2 67.9,411.4 67.6,410.7 68.3,410.0 68.8,409.3 69.0,408.8 69.3,408.3 69.6,407.3 70.0,406.6 70.5,405.7 70.5,404.8 70.5,403.6 69.8,403.0 69.2,402.8 69.1,402.3 68.5,401.5 68.7,400.9 68.9,400.4 69.2,399.8 69.5,399.2 70.1,399.3 70.9,400.2 71.4,400.2 71.3,400.7 71.1,401.3 71.2,401.9 71.4,402.5 71.3,403.1 72.0,404.2 72.9,405.3 73.4,405.9 74.0,406.4 74.5,406.8 75.1,407.2 75.6,407.3 76.3,407.4 76.9,407.0 77.5,406.8 78.2,406.8 77.6,406.8 77.0,406.9 76.8,407.5 78.0,407.8 78.9,407.7 79.5,407.7 80.0,407.7 80.9,408.2 81.4,408.6 82.1,408.9 82.7,408.9 83.3,409.0 84.0,408.9 85.2,408.7 85.9,408.6 86.4,408.5 86.9,408.3 87.5,408.1 88.1,407.9 88.7,407.5 89.4,407.1 90.2,406.3 90.6,405.6 90.8,405.0 91.8,404.3 92.4,404.0 93.3,403.6 93.9,403.0 94.7,402.6 95.4,403.0 96.2,402.6 97.1,402.8 97.6,402.7 98.1,402.6 98.8,402.1 99.3,401.7 99.9,401.1 100.8,400.1 101.8,398.8 102.2,398.3 102.6,397.6 102.8,397.1 103.0,395.7 103.6,395.5 104.3,395.0 105.4,394.5 105.9,393.8 106.5,393.4 106.9,392.8 107.3,392.3 108.0,391.3 108.4,390.7 109.1,389.7 109.9,389.1 110.9,388.5 111.7,389.0 112.8,389.1 114.1,388.7 114.7,388.1 114.7,387.5 115.2,387.5 116.2,387.3 116.7,386.8 117.2,386.1 116.6,385.5 116.4,384.8 116.5,384.2 117.0,382.5 116.5,382.1 116.0,382.3 115.7,381.5 116.4,381.5 116.8,382.1 117.5,381.4 118.3,381.3 118.9,381.2 119.4,380.8 119.9,380.6 120.4,380.7 120.3,381.2 121.6,381.7 122.1,382.0 122.6,382.6 122.6,383.3 122.3,384.2 122.1,384.7 122.6,384.0 122.8,383.2 123.6,384.2 123.0,384.5 123.6,385.0 124.1,384.9 124.4,384.4 125.0,385.2 125.5,384.9 125.0,384.7 125.4,384.1 125.9,383.9 126.6,383.9 126.8,384.4 126.8,385.0 127.3,385.2 127.7,385.7 128.2,385.6 128.7,385.9 129.2,385.8 129.5,386.5 128.9,386.8 129.6,387.3 129.9,387.8 130.2,388.5 130.4,389.3 130.4,390.6 131.0,390.3 131.5,389.3 132.0,388.7 131.6,388.1 132.4,388.2 133.2,388.0 133.8,388.2 134.0,387.5 134.6,387.1 134.9,388.0 134.6,388.5 135.3,388.4 135.5,389.0 135.3,389.7 135.8,389.7 136.3,389.5 136.7,390.1 136.8,390.7 136.5,391.4 135.9,392.1 135.5,391.6 134.8,392.5 134.9,393.3 134.5,393.8 134.6,394.3 134.3,395.5 134.1,396.1 133.7,396.7 134.5,396.6 134.8,396.0 135.0,395.4 135.7,395.2 136.3,394.8 136.5,395.5 136.1,396.0 135.9,396.7 136.8,396.9 137.9,396.3 138.0,395.8 138.6,396.0 138.9,396.5 139.8,397.1 140.4,397.2 141.0,396.9 141.4,397.4 140.9,398.2 140.1,398.0 139.5,397.6 138.9,397.0 138.2,398.0 137.6,398.0 137.4,398.6 138.0,399.3 137.4,400.2 136.8,401.0 136.8,401.5 136.9,402.0 136.2,401.9 135.7,402.0 135.1,401.6 134.4,401.7 133.8,401.9 134.4,402.1 133.9,402.2 133.6,402.9 134.9,402.8 135.7,402.5 136.5,402.5 137.1,402.8 137.1,403.4 137.6,403.7 138.2,403.3 138.7,402.7 139.2,402.2 139.8,402.5 140.4,402.4 139.7,403.8 139.1,404.0 139.8,404.7 140.3,405.4 140.8,405.0 141.0,405.6 140.9,406.2 141.5,406.5 142.1,406.2 142.6,406.5 142.9,407.1 144.1,407.4 144.6,407.3 144.3,407.9 143.2,407.9 142.6,407.8 142.3,408.4 142.7,409.0 142.8,409.5 142.3,409.6 141.9,410.2 141.8,410.7 141.9,411.2 142.2,411.9 142.7,412.4 143.6,413.0 144.2,413.5 143.9,414.0 144.0,415.0 144.1,416.0 144.3,416.5 144.8,416.9 145.3,417.1 145.6,417.6 145.9,418.3 145.8,418.9 145.8,419.4 145.5,420.0 145.4,420.6 145.5,421.2 145.7,421.8 145.9,422.3 145.9,422.9 146.2,423.5 146.7,424.0 147.5,424.5 147.9,425.0 148.0,425.8 148.0,426.4 148.8,427.1 149.4,427.3 149.7,427.9 149.7,428.7 149.4,429.8 149.0,430.8 148.8,431.4 148.4,432.3 148.0,433.2 147.2,434.2 147.1,435.0 147.1,435.5 146.7,436.6 146.3,437.2 145.6,437.2 145.0,437.6 144.4,438.2 143.9,438.7 143.4,439.2 142.9,439.8 142.5,440.3 142.1,441.0 141.7,441.6 141.3,442.5 140.4,443.7 140.0,444.9 139.8,445.6 139.8,446.1 139.8,446.6 139.9,447.1 140.0,448.1 140.1,449.5 140.3,450.3 140.9,450.9 141.0,451.4 141.4,452.0 141.5,452.7 142.1,453.4 142.8,454.4 143.1,454.9 143.8,455.4 144.3,455.7 145.1,456.0 145.4,456.8 145.1,457.3 144.7,458.4 144.5,458.9 144.0,459.7 143.9,460.3 143.7,460.8 143.7,461.9 143.4,462.4 143.1,462.9 143.0,464.5 143.0,465.1 143.3,465.6 144.0,466.0 144.5,466.2 144.4,467.0 143.5,467.1 143.1,467.6 142.8,468.4 142.8,469.0 142.9,470.3 143.3,470.8 143.6,471.4 143.0,472.1 142.6,473.5 142.5,474.1 142.5,474.6 142.4,475.1 142.3,475.6 142.2,476.4 142.2,476.9 142.5,477.8 142.5,479.0 142.6,479.5 142.5,480.0 142.6,480.6 142.3,481.3 141.8,481.9 142.1,482.4 141.9,483.1 141.5,483.6 141.3,484.1 141.3,484.9 141.5,485.6 141.5,486.1 141.6,487.1 141.8,487.9 141.7,489.1 141.7,489.7 141.4,490.4 141.5,491.0 140.9,491.6 140.6,493.1 140.5,494.1 140.7,494.6 141.2,494.9 141.1,495.5 141.1,496.1 141.2,496.8 141.0,497.4 141.0,498.0 140.5,498.6 140.2,499.5 139.7,500.8 139.4,501.5 139.2,502.3 139.0,502.8 138.9,503.8 139.0,505.2 139.1,505.8 139.7,506.5 140.5,506.8 140.7,507.5 140.2,507.4 139.7,507.4 139.2,507.8 138.6,508.6 138.3,509.2 137.8,510.2 137.6,510.8 137.5,511.7 137.4,512.7 137.3,513.2 137.2,513.9 137.3,514.4 137.8,514.6 138.0,515.1 137.6,515.7 137.4,516.6 137.3,517.2 137.1,517.8 136.5,518.1 136.0,518.1 135.4,518.7 135.0,519.2 135.0,519.9 135.3,520.5 134.7,520.1 134.3,519.5 134.3,519.0 134.5,518.5 133.4,517.9 132.7,518.1 131.9,518.3 131.4,518.6 130.9,518.7 130.7,518.2 129.8,517.8 129.3,517.4 128.7,517.4 128.6,516.5 128.0,515.9 127.5,515.4 126.8,515.2 126.3,515.0 125.6,514.1 125.1,513.6 124.5,513.4 123.9,513.3 123.3,512.9 121.6,512.8 121.1,512.6 120.7,512.1 120.2,512.0 119.6,512.0 118.8,512.3 118.2,512.6 117.7,513.0 117.2,513.5 116.9,514.1 117.4,514.6 116.9,515.0 116.2,514.9 115.1,513.4 114.4,512.9 113.7,512.9 112.8,513.5 112.3,513.9 111.6,514.6 111.1,515.3 110.4,516.2 109.9,517.0 109.7,517.7 109.6,518.3 109.3,518.9 109.6,519.5 109.7,520.1 109.6,520.6 109.7,521.2 110.2,521.8 110.6,522.5 111.1,523.0 111.1,523.5 110.9,524.1 110.6,524.6 110.2,525.2 110.1,525.9 110.1,526.5 109.5,527.6 108.8,527.6 108.4,528.3 107.8,529.0 107.2,529.6 106.1,530.5 105.2,531.3 104.6,531.8 104.1,532.7 103.4,533.3 102.9,533.5 101.8,534.4 101.1,534.7 100.5,534.7 100.1,534.1 99.1,533.2 98.5,533.6 97.9,533.3 97.7,532.8 97.6,532.2 97.0,532.2 96.3,531.7 95.6,531.4 95.1,530.9 94.5,531.5 93.9,531.9 92.9,532.4 92.3,532.7 92.2,533.2 91.6,533.5 91.1,533.6 91.1,534.1 91.5,535.1 90.9,535.5 90.9,534.7 90.8,534.1 91.0,533.6 90.5,533.4 89.8,533.7 89.1,533.8 89.0,533.1 89.3,532.4 89.8,531.1 89.7,530.4 89.4,529.7 89.0,529.2 88.5,529.2 87.9,529.4 87.5,528.0 87.3,527.3 86.9,526.7 87.0,525.9 87.5,525.3 87.4,524.8 87.2,524.2 86.9,523.7 86.3,523.7 85.8,523.7 85.3,523.1 84.4,522.7 83.6,522.6 82.9,522.7 82.0,523.0 82.0,523.5 81.8,524.0 81.4,524.8 81.1,525.7 81.1,526.3 81.1,526.8 81.2,527.3 80.7,527.9 80.7,528.5 80.4,529.1 79.6,529.2 79.1,529.5 78.4,528.2 78.2,527.6 77.9,526.9 77.8,526.3 77.1,525.4 76.9,524.9 76.8,524.4 76.6,523.9 76.5,522.8 76.3,522.1 76.1,521.5 76.4,520.9 76.2,520.4 76.6,519.9 77.3,519.4 77.5,520.1 79.1,520.1 79.6,519.8 80.2,520.4 80.8,520.7 81.4,521.2 81.5,521.7 81.7,522.6 82.4,522.9 82.5,522.2 82.9,521.5 83.0,520.9 82.4,519.9 82.2,519.4 81.7,518.8 81.2,519.1 80.6,519.1 80.3,518.3 80.6,517.7 80.5,516.7 80.1,516.1 79.3,515.4 79.0,516.1 79.5,516.6 79.0,516.1 78.7,515.1 78.6,514.4 78.5,513.8 77.7,513.5 77.1,512.7 77.0,511.9 77.6,511.3 78.2,510.7 78.7,510.3 79.2,509.6 79.7,509.4 80.4,508.4 80.5,507.9 80.4,507.4 80.4,506.7 80.1,506.1 79.6,505.6 79.5,504.9 78.7,504.8 78.1,503.9 78.0,503.0 77.4,502.4 78.0,501.2 78.8,500.5 79.3,499.6 79.4,499.0 79.4,498.4 78.6,497.8 78.0,497.2 78.1,496.2 78.4,495.7 78.9,495.2 79.8,494.0 80.4,493.0 81.0,492.1 81.4,491.4 81.5,490.5 81.8,489.9 82.0,489.4 82.0,488.7 82.3,488.1 82.2,487.0 81.7,486.5 81.4,486.0 81.4,485.4 81.4,484.7 81.5,484.0 81.8,483.4 81.3,483.0 81.1,482.3 81.5,481.8 81.6,480.8 81.2,480.2 81.3,478.8 81.2,478.3 81.1,477.6 81.4,477.0 81.9,477.0 82.3,477.6 82.5,478.2 83.5,479.8 83.7,480.3 84.2,480.1 84.1,479.5 84.8,478.7 84.6,478.1 85.2,477.1 85.9,475.8 86.1,475.3 86.5,473.5 86.6,473.0 86.6,472.5 86.7,471.9 86.6,471.2 87.2,471.1 86.6,470.8 85.9,470.5 86.2,469.9 85.8,469.0 85.4,468.5 84.9,468.1 84.4,467.9 83.9,468.0 82.9,468.1 82.4,468.2 81.8,468.9 81.1,469.6 81.0,470.7 80.9,470.0 80.7,469.5 80.0,468.7 79.5,468.4 78.9,468.3 78.9,467.3 79.0,466.7 79.1,465.5 79.1,464.7 79.0,464.2 78.6,463.7 79.0,462.8 79.5,462.2 79.5,461.6 79.7,461.1 79.3,460.0 78.7,459.9 77.9,460.1 77.9,459.5 78.4,459.1 79.0,459.0 79.5,459.3 80.1,459.2 80.7,458.7 81.2,458.9 81.7,458.7 82.5,457.9 83.2,457.2 83.7,456.4 83.5,455.5 83.3,454.5 82.8,453.8 82.0,452.2 82.1,451.0 82.0,450.1 82.3,449.5 82.3,448.7 82.2,448.1 82.4,447.3 82.6,446.6 82.8,446.0 82.9,445.5 83.0,444.7 83.2,443.5 82.4,442.7 82.4,442.2 82.3,441.6 81.5,441.2 80.8,440.5 80.1,440.1 79.4,440.2 78.9,440.0 78.4,440.1 78.5,439.5 78.1,438.7 78.6,438.3 78.8,437.3 79.0,436.3 79.2,435.6 79.1,434.6 79.0,433.6 78.7,432.8 78.4,432.3 78.2,431.6 78.1,431.0 78.0,430.4 77.7,429.9 76.7,429.4 75.6,427.6 75.3,426.8 74.9,425.7 75.2,425.2 74.7,424.0 74.1,423.5 73.6,423.7 73.0,423.6 72.3,424.1 71.7,424.2 71.5,425.0 70.4,425.0 69.9,424.9 69.3,424.9 69.4,424.3" />
<polygon points="70.8,394.8 71.0,394.3 71.7,394.0 72.3,393.6 72.6,392.9 73.5,392.2 73.7,391.5 73.3,391.0 73.4,390.4 74.2,390.4 74.7,390.4 75.1,389.9 76.0,390.0 75.9,390.6 76.4,390.8 77.0,391.4 76.4,392.0 76.6,392.6 76.5,393.2 76.2,393.9 75.6,393.6 74.8,393.4 74.1,393.2 73.6,393.2 73.2,393.7 72.6,393.8 72.2,395.0 71.6,395.3 72.1,395.8 72.3,396.3 72.8,397.0 72.6,397.6 72.0,398.1 71.2,397.9 70.2,398.0 70.2,396.9 70.7,396.5 71.1,395.7 70.6,395.6 70.8,395.0" />
<polygon points="74.0,515.0 74.0,515.7 73.9,516.2 74.1,517.0 74.0,517.5 74.0,518.2 74.0,519.2 74.0,519.8 73.4,520.3 72.6,520.4 71.7,519.9 71.0,519.6 71.2,518.3 70.5,517.4 70.0,517.4 69.9,516.2 71.1,515.6 71.8,515.4 73.1,514.9 73.8,514.7" />
<polygon points="128.6,383.6 127.9,383.7 127.2,383.2 127.1,382.6 127.9,382.0 128.4,381.6 128.6,380.8 129.1,380.8 129.1,379.9 129.8,380.2 129.8,381.0 130.2,381.7 130.7,382.2 130.2,382.4 130.3,383.3 129.4,383.5 128.6,383.5" />
<polygon points="131.8,381.5 132.4,382.0 132.4,382.7 132.7,383.3 132.3,384.4 131.6,385.0 132.3,385.2 131.8,385.6 131.1,385.2 130.5,385.3 130.4,384.8 130.5,384.2 131.0,384.4 130.8,383.5 130.9,382.9 131.4,382.1 131.5,381.5" />
<polygon points="144.9,402.2 145.3,402.9 144.8,403.1 144.3,403.3 143.5,404.0 142.9,404.5 141.9,404.4 142.9,403.6 143.7,403.0 144.2,402.7 144.7,402.1" />
<polygon points="125.6,381.1 126.2,381.1 126.5,381.6 126.1,382.3 125.5,382.4 125.1,381.3 125.6,381.1" />
<polygon points="128.9,385.2 128.3,385.0 128.4,384.5 129.1,383.9 129.6,384.5 129.5,385.0 128.9,385.2" />
<polygon points="144.7,405.2 145.3,405.6 145.2,406.1 143.9,405.9 143.9,405.3 144.5,405.3" />
<polygon points="127.4,377.4 127.6,377.9 126.8,378.7 126.5,378.1 127.0,377.8" />
<polygon points="126.2,379.4 125.3,379.1 125.8,378.6 126.3,379.2" />
<polygon points="125.6,377.4 126.1,377.7 126.4,378.2 125.8,378.1 125.3,377.8 125.4,377.3" />
<polygon points="70.7,399.2 70.2,398.5 70.9,398.7 70.7,399.2" />
<polygon points="138.7,392.1 138.6,392.6 138.1,392.3 138.7,391.9" />
<polygon points="74.6,462.1 74.5,462.6 74.6,462.1" />
<polygon points="137.0,392.7 137.1,393.3 137.0,392.7" />
<polygon points="139.4,518.0 139.3,517.4 139.4,518.0" />
</g>
</g>
</g>
<!-- 
Generated using the Perl SVG Module V2.52
by Ronan Oger
Info: http://www.roitsystems.com/
 -->
</svg>
